<?xml version="1.0" standalone="no"?>
<!DOCTYPE svg PUBLIC "-//W3C//DTD SVG 20010904//EN"
 "http://www.w3.org/TR/2001/REC-SVG-20010904/DTD/svg10.dtd">
<svg version="1.0" xmlns="http://www.w3.org/2000/svg"
 width="1944.000000pt" height="1944.000000pt" viewBox="0 0 1944.000000 1944.000000"
 preserveAspectRatio="xMidYMid meet">
<metadata>
Created by potrace 1.14, written by Peter Selinger 2001-2017
</metadata>
<g transform="translate(0.000000,1944.000000) scale(0.100000,-0.100000)"
fill="#000000" stroke="none">
<path d="M9620 19425 c0 -15 -2 -17 -9 -6 -6 9 -10 10 -16 2 -5 -9 -10 -9 -21
0 -11 9 -17 9 -29 -1 -9 -7 -15 -8 -15 -2 0 5 -11 9 -24 8 -13 0 -22 -4 -19
-8 7 -12 -12 -9 -24 3 -7 7 -13 8 -17 0 -4 -7 -15 -7 -31 -1 -15 6 -27 6 -30
-1 -4 -5 -11 -7 -16 -3 -5 3 -17 0 -26 -8 -10 -8 -14 -8 -10 -1 4 6 3 14 -3
18 -5 3 -10 2 -10 -4 0 -6 -7 -7 -17 -4 -12 5 -14 3 -8 -8 6 -9 0 -8 -19 5
-16 10 -26 14 -22 8 4 -6 -14 -11 -45 -14 -28 -1 -53 1 -56 5 -3 4 -16 1 -30
-8 -14 -10 -22 -12 -19 -6 9 14 4 14 -29 1 -14 -5 -24 -6 -21 -1 5 8 -16 7
-61 -3 -13 -3 -23 0 -23 5 0 6 -5 7 -10 4 -6 -4 -7 -11 -4 -17 4 -6 -2 -6 -15
1 -14 8 -21 8 -21 1 0 -8 -6 -8 -20 0 -15 8 -20 8 -20 -2 0 -6 -7 -3 -15 8
-12 15 -14 16 -9 2 4 -13 1 -16 -15 -13 -12 2 -21 -1 -21 -8 0 -8 -3 -8 -9 2
-7 10 -13 11 -30 1 -16 -8 -26 -8 -35 -1 -7 6 -16 8 -20 4 -4 -4 -17 -8 -29
-9 -31 -3 -65 -12 -79 -20 -7 -5 -8 -3 -3 5 6 10 3 11 -14 2 -16 -9 -21 -9
-21 1 0 6 -7 3 -16 -8 -8 -10 -13 -14 -10 -8 4 8 -3 11 -19 10 -14 0 -25 -4
-25 -7 0 -4 -15 -7 -32 -7 -54 -1 -111 -12 -127 -25 -12 -10 -14 -9 -8 7 6 16
5 17 -8 6 -8 -7 -15 -9 -15 -5 0 4 -6 2 -14 -4 -11 -9 -15 -9 -19 1 -4 9 -6
10 -6 1 -1 -7 -8 -10 -18 -6 -10 4 -14 2 -10 -4 3 -5 0 -10 -8 -10 -8 0 -11 5
-8 10 3 5 0 7 -8 5 -8 -3 -13 -11 -11 -17 2 -9 -3 -9 -17 -1 -23 12 -34 13
-27 2 2 -4 -4 -8 -15 -8 -10 0 -19 4 -19 9 0 4 -5 5 -10 2 -6 -4 -8 -11 -5
-16 4 -5 1 -9 -4 -9 -6 0 -11 5 -11 12 0 6 -7 3 -16 -8 -8 -10 -13 -13 -9 -6
8 15 -11 16 -21 1 -4 -8 -9 -7 -15 2 -5 8 -9 9 -9 3 0 -11 -7 -13 -60 -16 -16
-1 -30 -5 -30 -10 0 -5 -9 -4 -19 2 -14 7 -22 7 -27 -1 -3 -6 -14 -9 -24 -6
-14 4 -17 1 -12 -12 5 -14 3 -14 -10 -3 -12 9 -18 10 -23 2 -5 -8 -11 -7 -23
2 -13 11 -14 11 -7 -1 6 -11 3 -13 -13 -9 -12 4 -20 2 -16 -3 3 -5 -2 -9 -11
-9 -10 0 -14 5 -10 13 4 6 1 5 -7 -3 -13 -15 -46 -19 -65 -7 -6 4 -18 -2 -28
-13 -14 -15 -21 -17 -32 -9 -10 9 -13 8 -13 0 0 -7 -4 -9 -10 -6 -5 3 -10 1
-10 -5 0 -6 -4 -8 -10 -5 -5 3 -19 1 -30 -5 -15 -8 -20 -8 -20 2 0 10 -2 10
-8 1 -4 -7 -23 -14 -42 -17 -19 -2 -48 -10 -65 -16 -16 -7 -47 -13 -67 -13
-23 1 -35 -3 -31 -10 4 -6 -4 -8 -20 -5 -17 3 -24 1 -20 -5 4 -6 0 -8 -10 -4
-10 4 -17 2 -17 -4 0 -6 -7 -9 -15 -6 -8 4 -17 2 -20 -3 -3 -5 -13 -6 -22 -3
-10 4 -14 2 -10 -4 5 -7 -1 -9 -15 -5 -12 3 -19 1 -15 -5 3 -5 0 -10 -8 -10
-8 0 -12 4 -9 9 3 4 -2 5 -10 2 -9 -3 -16 -9 -16 -13 0 -8 -8 -9 -55 -12 -14
-1 -22 -6 -18 -12 4 -6 0 -8 -10 -4 -10 3 -17 2 -17 -4 0 -6 -4 -8 -9 -4 -5 3
-13 1 -16 -5 -5 -8 -12 -7 -23 2 -9 7 -13 8 -10 3 4 -6 -5 -15 -18 -22 -13 -6
-22 -7 -18 -2 3 5 0 9 -5 9 -6 0 -11 -5 -11 -11 0 -5 -4 -7 -10 -4 -5 3 -10 0
-10 -7 0 -9 -3 -9 -10 2 -8 12 -10 12 -10 1 0 -8 -7 -11 -20 -8 -11 3 -18 1
-14 -4 5 -9 -9 -13 -35 -10 -7 2 -10 -2 -6 -8 3 -7 0 -8 -9 -5 -9 4 -16 1 -16
-6 0 -10 -3 -10 -14 -1 -11 9 -15 9 -18 -1 -3 -7 -16 -13 -29 -13 -14 -1 -23
-6 -21 -13 2 -10 -3 -10 -19 -1 -17 9 -20 8 -14 -2 6 -9 2 -11 -14 -6 -12 3
-27 -1 -35 -8 -7 -8 -16 -11 -20 -8 -3 4 -6 0 -6 -7 0 -7 -3 -10 -7 -7 -3 4
-13 1 -21 -6 -13 -9 -14 -9 -8 1 4 6 3 12 -2 12 -6 0 -13 -7 -16 -16 -3 -9
-13 -14 -21 -10 -8 3 -19 -3 -24 -12 -7 -11 -11 -12 -11 -4 0 9 -10 6 -32 -9
-17 -13 -28 -16 -23 -8 5 7 -2 5 -15 -6 -13 -11 -20 -14 -16 -7 4 6 3 12 -2
12 -6 0 -12 -7 -16 -15 -3 -8 -10 -15 -16 -15 -6 0 -8 6 -4 13 4 6 -2 4 -13
-6 -11 -9 -23 -14 -26 -10 -4 3 -7 1 -7 -5 0 -6 -7 -9 -17 -5 -12 5 -14 3 -8
-7 6 -10 4 -12 -8 -7 -10 4 -17 2 -17 -5 0 -6 -6 -5 -17 3 -11 10 -14 10 -9 2
4 -8 2 -13 -4 -13 -6 0 -8 -5 -4 -12 4 -7 3 -8 -5 -4 -6 4 -19 2 -28 -6 -14
-11 -16 -11 -8 2 8 13 6 13 -8 2 -9 -8 -21 -11 -27 -7 -5 3 -13 -1 -16 -9 -3
-9 -10 -14 -14 -11 -5 3 -11 1 -15 -5 -4 -6 -11 -8 -16 -5 -5 4 -9 1 -9 -5 0
-6 -4 -9 -9 -5 -5 3 -13 0 -16 -6 -4 -5 -13 -8 -21 -5 -9 3 -14 -1 -14 -12 0
-15 -2 -15 -10 -2 -8 12 -10 12 -10 1 0 -8 -7 -11 -20 -8 -11 3 -18 2 -15 -3
2 -4 -4 -15 -15 -25 -12 -10 -20 -13 -20 -7 0 7 5 12 12 12 6 0 9 3 6 6 -4 3
-17 -2 -30 -10 -14 -9 -28 -13 -33 -9 -4 5 -5 3 -2 -3 8 -14 -20 -27 -36 -17
-7 4 -8 0 -3 -12 6 -16 4 -16 -10 -4 -14 11 -18 11 -29 -4 -6 -9 -15 -14 -18
-10 -4 3 -7 2 -7 -3 0 -5 -10 -11 -22 -11 -13 -1 -27 -8 -33 -15 -5 -8 -29
-20 -52 -27 -24 -8 -43 -18 -43 -23 0 -5 -4 -7 -9 -3 -5 3 -12 1 -16 -4 -3 -6
-13 -7 -22 -4 -11 4 -14 3 -9 -5 6 -10 -6 -17 -18 -9 -2 1 -14 -7 -27 -18 -14
-13 -20 -14 -15 -5 4 8 0 6 -8 -4 -9 -11 -16 -16 -16 -12 0 5 -7 3 -15 -4 -8
-6 -20 -8 -26 -4 -7 4 -9 3 -6 -2 3 -5 -8 -17 -24 -27 -17 -9 -27 -12 -24 -7
3 5 -1 7 -9 4 -9 -3 -14 -11 -13 -17 1 -7 -8 -11 -21 -9 -14 2 -21 -1 -20 -10
2 -8 -5 -12 -21 -10 -13 2 -21 -1 -17 -6 3 -6 -1 -13 -10 -16 -10 -4 -13 -2
-9 7 4 6 -1 3 -9 -7 -9 -11 -16 -17 -16 -13 0 4 -10 -1 -22 -13 -14 -13 -29
-18 -42 -14 -12 4 -18 3 -14 -1 5 -5 -4 -16 -20 -25 -19 -12 -29 -14 -34 -6
-5 7 -8 4 -8 -6 0 -16 -17 -23 -42 -19 -4 0 -5 -6 -1 -15 5 -13 2 -15 -17 -9
-15 5 -20 4 -16 -4 4 -6 0 -11 -9 -11 -10 0 -13 -5 -9 -12 6 -10 4 -10 -8 0
-13 10 -17 10 -22 -3 -3 -9 -10 -14 -15 -11 -5 3 -11 -1 -15 -9 -3 -8 -12 -15
-20 -15 -8 0 -29 -12 -48 -27 -22 -18 -28 -21 -18 -8 14 19 14 20 -6 2 -11 -9
-24 -14 -29 -10 -4 5 -5 2 -1 -4 4 -8 1 -13 -9 -13 -10 0 -13 -5 -9 -12 5 -7
3 -8 -5 -4 -7 5 -19 0 -27 -10 -9 -11 -13 -13 -9 -7 4 9 1 11 -9 7 -9 -3 -13
-10 -10 -15 5 -8 -12 -13 -43 -12 -6 0 -9 -6 -6 -15 4 -10 2 -13 -5 -8 -7 4
-12 2 -12 -4 0 -6 -4 -8 -10 -5 -5 3 -10 1 -10 -5 0 -6 -4 -9 -9 -6 -5 3 -11
-1 -15 -9 -3 -8 -12 -15 -21 -15 -8 0 -15 -4 -15 -9 0 -5 -11 -12 -25 -15 -14
-4 -25 -11 -25 -16 0 -5 -16 -16 -36 -25 -24 -10 -33 -19 -28 -27 5 -8 1 -7
-11 2 -17 13 -18 13 -13 -1 5 -11 1 -16 -10 -15 -9 0 -16 -5 -14 -12 1 -8 -2
-11 -9 -6 -7 4 -18 -1 -26 -11 -7 -11 -13 -15 -13 -10 0 5 -7 0 -16 -11 -8
-10 -13 -13 -9 -7 4 9 1 11 -9 7 -9 -3 -14 -10 -11 -14 5 -8 -33 -26 -47 -22
-4 1 -4 -6 -1 -15 5 -12 2 -15 -10 -10 -9 3 -17 3 -17 -2 0 -5 -11 -12 -24
-15 -14 -3 -28 -16 -31 -27 -6 -17 -9 -19 -16 -8 -7 11 -9 10 -9 -3 0 -10 -5
-18 -11 -18 -7 0 -18 -8 -26 -17 -8 -11 -11 -12 -7 -3 7 13 5 13 -9 1 -9 -7
-14 -18 -10 -24 3 -6 1 -7 -5 -3 -7 4 -12 2 -12 -4 0 -6 -4 -9 -9 -6 -5 3 -23
-8 -41 -24 -18 -16 -36 -28 -41 -25 -10 7 -31 -30 -21 -39 3 -4 -1 -4 -11 0
-10 3 -17 1 -17 -6 0 -6 -5 -8 -10 -5 -6 3 -13 -1 -16 -9 -3 -9 -10 -13 -15
-10 -8 5 -13 -9 -10 -28 0 -4 -6 -5 -14 -2 -8 4 -15 1 -15 -6 0 -6 -4 -8 -10
-5 -5 3 -10 1 -10 -5 0 -6 -4 -8 -10 -5 -6 4 -7 -1 -3 -11 4 -12 3 -15 -5 -10
-6 4 -20 -2 -31 -13 -11 -11 -22 -17 -26 -13 -3 3 -8 -3 -11 -15 -4 -15 -11
-20 -22 -16 -10 4 -13 2 -8 -5 4 -7 1 -12 -8 -12 -8 0 -18 -5 -22 -12 -5 -7
-3 -8 6 -3 8 5 11 4 6 -3 -4 -6 -14 -8 -23 -5 -11 4 -14 3 -9 -5 4 -7 1 -12
-7 -12 -8 0 -18 -7 -21 -16 -3 -9 -13 -14 -21 -11 -9 4 -12 1 -9 -7 3 -8 0
-17 -7 -22 -8 -5 -10 -3 -4 5 5 9 1 9 -14 -1 -12 -7 -19 -18 -17 -25 3 -7 -1
-10 -10 -6 -7 3 -14 -1 -14 -8 0 -7 -3 -10 -6 -7 -3 3 -16 -5 -30 -19 -14 -14
-29 -21 -37 -17 -7 5 -6 0 3 -11 8 -10 10 -16 4 -12 -6 4 -27 -8 -46 -26 -47
-43 -77 -63 -91 -59 -6 2 -4 -4 3 -13 7 -9 9 -15 4 -14 -21 4 -34 -2 -34 -16
0 -8 -4 -14 -8 -12 -4 1 -20 -11 -35 -26 -14 -16 -31 -26 -36 -22 -7 4 -8 -1
-4 -12 3 -10 3 -15 -1 -11 -4 3 -31 -17 -59 -45 -29 -29 -49 -48 -45 -43 5 6
8 15 8 20 0 6 -9 -2 -19 -18 -11 -17 -17 -35 -14 -40 4 -6 -2 -4 -12 4 -17 14
-18 13 -13 -7 4 -15 2 -20 -7 -16 -8 2 -19 -5 -25 -17 -6 -12 -18 -19 -25 -16
-9 3 -12 0 -8 -10 3 -7 0 -14 -7 -14 -6 0 -8 -5 -5 -10 4 -6 3 -9 -2 -8 -14 5
-55 -30 -49 -41 5 -7 1 -8 -10 -4 -12 4 -15 3 -10 -5 6 -11 -5 -17 -27 -13 -4
0 -6 -3 -5 -7 2 -4 -12 -21 -30 -37 -18 -17 -34 -39 -36 -50 -2 -12 -11 -20
-22 -20 -10 0 -24 -11 -30 -23 -8 -17 -13 -20 -17 -10 -3 7 -6 3 -6 -10 -1
-13 -5 -20 -11 -17 -5 3 -10 -1 -10 -10 0 -9 -4 -13 -10 -10 -9 6 -14 -8 -11
-28 0 -4 -2 -6 -6 -6 -19 3 -34 -2 -29 -9 7 -11 -30 -42 -40 -34 -4 4 -4 -1
-1 -11 4 -10 3 -16 -1 -13 -5 3 -14 -4 -22 -14 -8 -10 -17 -17 -21 -14 -4 2
-11 -1 -15 -7 -5 -8 -3 -9 6 -4 8 5 11 3 8 -6 -3 -8 -12 -13 -21 -13 -9 1 -15
-1 -14 -5 3 -11 -30 -51 -36 -44 -4 3 -7 -1 -7 -9 0 -9 -16 -29 -36 -46 -22
-19 -33 -35 -28 -43 4 -8 3 -9 -4 -5 -7 4 -12 2 -12 -4 0 -7 -7 -10 -14 -7
-10 4 -13 1 -9 -9 3 -7 0 -14 -7 -14 -6 0 -8 -4 -5 -10 3 -5 -1 -10 -10 -10
-11 0 -15 -5 -12 -14 4 -10 0 -14 -13 -11 -14 3 -18 -1 -15 -16 2 -10 1 -18
-3 -18 -4 1 -14 1 -22 0 -13 -1 -13 -2 0 -11 13 -9 13 -10 0 -11 -8 -1 -18 -1
-23 0 -4 0 -6 -2 -5 -6 2 -11 -20 -63 -27 -63 -4 0 -3 5 0 10 3 6 2 10 -2 10
-5 0 -14 -9 -20 -20 -11 -17 -10 -18 5 -13 13 4 13 3 -3 -10 -11 -8 -24 -13
-30 -10 -5 4 -7 3 -3 -2 4 -4 -3 -18 -15 -29 -13 -12 -21 -28 -19 -35 3 -8 0
-11 -7 -7 -6 4 -11 1 -11 -8 0 -14 -11 -20 -32 -17 -4 0 -5 -6 -2 -14 4 -8 1
-15 -4 -15 -6 0 -13 -9 -17 -19 -3 -11 -15 -23 -26 -26 -17 -6 -18 -9 -7 -23
7 -9 8 -13 2 -9 -15 9 -38 -19 -28 -34 4 -8 3 -9 -5 -5 -6 4 -14 0 -17 -8 -3
-9 -11 -13 -17 -9 -5 3 -7 1 -3 -5 3 -6 -8 -25 -26 -43 -18 -17 -33 -38 -34
-45 -1 -8 -9 -21 -18 -30 -9 -8 -16 -22 -16 -30 0 -8 -6 -13 -12 -12 -7 2 -12
-3 -10 -9 1 -7 -2 -13 -8 -13 -5 0 -10 -7 -10 -15 0 -8 -4 -15 -9 -15 -6 0
-21 -18 -34 -40 -13 -22 -27 -37 -32 -33 -4 5 -6 1 -3 -7 2 -8 -6 -24 -19 -36
-12 -11 -20 -24 -16 -27 3 -4 0 -7 -7 -7 -7 0 -10 -3 -7 -6 4 -4 -6 -18 -21
-32 -15 -13 -21 -21 -15 -18 9 5 11 2 7 -8 -3 -9 -10 -13 -15 -10 -5 3 -9 -2
-9 -10 0 -9 -5 -16 -11 -16 -5 0 -7 -5 -4 -11 4 -6 -2 -13 -14 -16 -17 -4 -19
-8 -10 -19 9 -11 8 -14 -2 -14 -8 0 -23 -13 -34 -28 -12 -18 -14 -24 -4 -17 8
6 3 -1 -11 -14 -14 -13 -18 -20 -10 -16 8 3 7 0 -4 -9 -10 -8 -15 -19 -12 -24
3 -5 -3 -12 -14 -15 -12 -3 -20 -14 -20 -26 0 -12 -5 -21 -11 -21 -6 0 -9 -7
-6 -14 4 -10 1 -13 -7 -10 -7 3 -16 -2 -20 -11 -4 -11 -2 -14 7 -10 6 4 1 -3
-12 -14 -13 -12 -20 -21 -17 -21 4 0 1 -10 -6 -22 -7 -13 -11 -26 -10 -30 1
-4 -5 -5 -14 -1 -8 3 -14 2 -13 -3 4 -22 -2 -45 -10 -40 -4 3 -16 -12 -26 -34
-10 -23 -22 -37 -29 -33 -6 3 -8 3 -4 -2 8 -8 -19 -66 -35 -77 -6 -3 -12 -15
-13 -24 -2 -10 -9 -23 -16 -29 -13 -10 -20 -28 -21 -53 0 -7 -7 -10 -14 -8 -8
3 -11 2 -8 -3 3 -5 1 -12 -5 -16 -6 -4 -8 -10 -5 -15 3 -4 -2 -10 -10 -14 -9
-3 -12 -12 -8 -22 4 -11 2 -15 -4 -11 -6 4 -18 -9 -27 -28 -9 -19 -20 -35 -24
-35 -12 0 -9 -40 3 -41 5 0 -1 -5 -14 -10 -15 -6 -21 -14 -17 -24 3 -9 -3 -20
-14 -27 -11 -7 -20 -19 -20 -26 0 -7 -6 -15 -13 -18 -8 -3 -13 -14 -12 -26 1
-12 -7 -30 -18 -41 -10 -10 -16 -25 -13 -33 3 -8 -1 -14 -9 -14 -8 0 -14 -3
-13 -7 1 -5 -5 -21 -12 -38 -7 -16 -12 -34 -11 -39 1 -5 -5 -6 -14 -2 -13 4
-14 2 -5 -14 9 -16 8 -22 -5 -26 -8 -3 -13 -9 -10 -14 2 -4 -3 -16 -11 -26 -9
-10 -12 -13 -8 -5 5 9 3 12 -4 7 -9 -5 -9 -13 -1 -28 9 -16 8 -19 -2 -13 -9 6
-11 3 -6 -8 4 -10 2 -16 -6 -14 -7 1 -11 -4 -9 -11 1 -7 -5 -15 -13 -18 -8 -4
-15 -10 -15 -16 0 -5 6 -6 13 -3 6 4 5 1 -4 -7 -9 -7 -15 -21 -13 -31 1 -10
-2 -14 -9 -10 -7 4 -8 0 -4 -11 4 -9 3 -15 -2 -12 -10 6 -33 -49 -24 -57 2 -3
-5 -8 -16 -12 -12 -3 -18 -11 -15 -17 4 -6 10 -5 15 3 6 10 9 10 9 2 0 -6 -10
-19 -22 -27 -15 -11 -18 -16 -8 -16 12 0 12 -2 2 -9 -7 -4 -14 -17 -15 -28 0
-13 -6 -19 -14 -16 -7 3 -13 0 -13 -6 0 -6 5 -11 11 -11 5 0 7 -5 4 -11 -4 -6
-13 -8 -21 -5 -11 4 -12 2 -4 -14 8 -14 7 -21 -5 -27 -8 -5 -16 -19 -18 -32
-2 -12 -9 -26 -16 -31 -11 -6 -11 -9 -1 -15 10 -6 8 -11 -6 -22 -10 -8 -18
-16 -16 -18 7 -14 0 -25 -10 -19 -10 6 -10 4 0 -8 11 -14 10 -18 -5 -27 -14
-8 -15 -10 -3 -11 13 0 13 -2 0 -9 -8 -6 -18 -7 -24 -4 -5 3 -6 1 -2 -6 4 -6
13 -8 19 -4 7 3 4 -2 -5 -13 -14 -16 -15 -23 -5 -33 9 -10 8 -11 -7 -5 -13 5
-17 4 -12 -4 4 -7 3 -12 -3 -12 -6 0 -8 -7 -5 -15 4 -8 1 -15 -5 -15 -6 0 -10
-3 -9 -7 2 -13 -15 -68 -23 -73 -4 -3 -11 -21 -14 -40 -3 -19 -9 -37 -13 -40
-4 -3 -8 -11 -9 -17 -2 -7 -4 -19 -5 -25 -2 -7 -7 -16 -12 -19 -5 -4 -8 -18
-8 -33 0 -15 -5 -23 -11 -19 -6 4 -8 -2 -5 -15 4 -12 2 -22 -4 -22 -6 0 -7 -7
-4 -16 3 -8 2 -13 -3 -10 -8 5 -26 -48 -22 -66 0 -5 -3 -8 -8 -8 -5 0 -8 -11
-7 -25 2 -13 0 -24 -3 -23 -19 2 -22 -4 -10 -19 10 -11 10 -14 2 -9 -9 5 -13
1 -13 -11 0 -11 -6 -25 -12 -32 -10 -11 -10 -12 -1 -7 9 5 11 2 7 -8 -3 -9
-10 -14 -15 -11 -4 3 -6 -3 -4 -15 2 -11 0 -22 -5 -25 -5 -3 -7 -12 -3 -21 3
-8 -3 -21 -13 -29 -13 -10 -15 -14 -5 -15 11 0 11 -3 1 -15 -6 -8 -8 -20 -4
-26 5 -8 3 -9 -6 -4 -10 6 -12 3 -7 -14 3 -14 0 -24 -9 -28 -10 -4 -11 -10 -3
-24 7 -15 7 -19 -3 -17 -8 2 -12 -4 -10 -14 2 -10 -1 -18 -7 -18 -5 0 -8 -11
-6 -25 1 -14 -1 -25 -6 -25 -4 0 -6 -9 -4 -19 2 -14 -1 -18 -10 -15 -10 4 -13
0 -10 -16 2 -13 7 -25 9 -28 3 -2 -3 -17 -12 -31 -10 -14 -18 -38 -17 -53 0
-16 -2 -28 -6 -28 -4 0 -6 -11 -4 -25 1 -14 -2 -28 -8 -32 -6 -4 -7 -1 -2 8 5
8 4 10 0 6 -14 -12 -15 -38 -2 -31 8 5 7 2 0 -7 -7 -7 -13 -24 -13 -37 0 -13
-4 -21 -8 -18 -5 3 -9 -1 -9 -9 0 -8 5 -11 11 -8 6 4 5 -1 -2 -10 -8 -9 -11
-21 -8 -26 4 -5 2 -12 -3 -16 -5 -3 -8 -14 -6 -25 2 -11 -1 -23 -7 -26 -7 -5
-8 -2 -3 6 5 8 4 11 -3 6 -7 -4 -8 -17 -2 -36 7 -25 5 -32 -13 -45 -12 -8 -16
-15 -9 -15 7 0 10 -5 6 -11 -4 -7 -7 -24 -6 -40 0 -15 -6 -33 -13 -39 -10 -9
-12 -17 -5 -30 7 -12 4 -23 -10 -38 -11 -11 -15 -22 -9 -24 7 -2 6 -13 -1 -33
-17 -43 -20 -66 -9 -60 5 4 6 11 3 17 -5 7 -2 8 5 4 9 -6 8 -13 -5 -27 -11
-12 -18 -36 -18 -59 0 -22 -4 -40 -9 -40 -4 0 -6 -4 -2 -9 3 -5 1 -12 -5 -16
-7 -4 -7 -12 0 -25 7 -13 7 -21 -1 -25 -6 -4 -8 -13 -5 -21 3 -7 -3 -18 -12
-23 -9 -6 -12 -11 -6 -11 11 0 12 -35 2 -46 -4 -3 -4 -13 -1 -22 4 -10 2 -13
-5 -8 -9 5 -9 0 -2 -19 5 -14 6 -24 1 -21 -5 3 -12 -1 -15 -10 -3 -8 -2 -13 3
-10 14 9 5 -52 -10 -71 -8 -9 -9 -14 -3 -10 7 4 14 1 17 -7 6 -16 -1 -26 -17
-26 -6 0 -4 5 4 10 8 5 10 10 4 10 -16 0 -23 -10 -17 -26 3 -8 10 -11 17 -7 6
4 5 -1 -3 -10 -7 -9 -11 -24 -7 -32 7 -20 -4 -46 -17 -38 -6 4 -7 1 -3 -6 11
-18 15 -61 5 -55 -5 3 -7 -9 -5 -25 2 -17 -1 -31 -7 -31 -5 0 -4 -7 3 -15 9
-11 10 -15 1 -15 -8 0 -10 -8 -6 -21 5 -15 4 -19 -5 -14 -9 6 -9 3 -1 -14 9
-16 9 -21 0 -21 -8 0 -7 -5 2 -17 12 -15 12 -16 -5 -10 -14 6 -16 4 -9 -5 6
-7 9 -22 7 -33 -2 -11 -4 -39 -5 -62 -1 -26 -5 -40 -12 -36 -6 4 -7 1 -2 -6 9
-16 13 -71 4 -65 -13 7 -18 -23 -6 -36 9 -10 9 -14 -1 -17 -6 -3 -9 -10 -5
-16 10 -16 13 -37 5 -37 -4 0 -8 -16 -8 -35 -1 -23 2 -32 10 -28 7 4 7 2 -1
-7 -6 -7 -9 -19 -6 -28 4 -10 2 -13 -5 -8 -7 4 -8 -2 -2 -24 5 -17 5 -28 1
-25 -5 2 -7 -20 -6 -51 1 -30 -2 -57 -6 -60 -5 -3 -4 -15 1 -29 6 -16 5 -25
-3 -29 -7 -2 -7 -5 -2 -5 11 -1 12 -68 1 -78 -3 -4 -1 -12 5 -20 8 -8 8 -13 1
-13 -11 0 -10 -25 1 -36 4 -4 1 -14 -6 -22 -10 -13 -9 -14 1 -8 12 7 12 4 2
-15 -10 -18 -10 -24 -1 -27 9 -3 9 -7 1 -18 -7 -7 -8 -19 -4 -26 14 -23 13
-40 -2 -34 -12 5 -11 0 2 -25 8 -17 12 -29 7 -26 -10 6 -10 -104 0 -120 3 -5
2 -15 -3 -23 -4 -7 -4 -24 1 -37 5 -15 5 -22 0 -18 -6 3 -9 -4 -8 -15 1 -11 5
-20 9 -20 4 0 3 -12 -3 -27 -5 -14 -6 -29 -2 -32 13 -10 14 -31 2 -31 -8 0 -8
-4 -1 -13 7 -8 7 -18 2 -27 -5 -8 -4 -22 2 -34 8 -15 8 -21 -1 -24 -8 -3 -6
-9 6 -19 10 -8 13 -12 7 -9 -15 7 -13 -96 1 -106 6 -5 5 -8 -3 -8 -10 0 -10
-5 -2 -20 6 -11 8 -20 4 -20 -3 0 0 -8 7 -17 12 -15 12 -16 -4 -10 -14 5 -16
3 -8 -11 5 -9 9 -20 10 -24 1 -5 1 -10 2 -13 4 -20 2 -53 -5 -63 -4 -6 -3 -12
3 -12 11 0 9 -19 -3 -39 -6 -9 -5 -12 1 -8 6 4 14 0 17 -9 8 -21 8 -24 -5 -24
-5 0 -7 5 -3 12 5 7 3 8 -5 4 -9 -6 -9 -12 3 -24 11 -13 12 -22 4 -36 -7 -13
-7 -17 0 -12 6 3 13 2 17 -4 3 -5 2 -10 -3 -10 -10 0 -9 -30 1 -47 4 -6 1 -14
-5 -16 -10 -4 -9 -6 1 -6 11 -1 11 -4 1 -16 -7 -8 -8 -15 -2 -15 5 0 10 -17
11 -38 4 -88 6 -102 14 -102 5 0 4 -7 -3 -15 -9 -11 -9 -15 -1 -15 7 0 9 -4 6
-10 -3 -5 0 -10 7 -10 10 0 10 -2 -1 -9 -11 -7 -11 -9 0 -14 10 -4 8 -6 -4 -6
-15 -1 -16 -3 -5 -15 7 -8 18 -11 23 -8 6 3 4 -1 -2 -9 -9 -11 -9 -19 -2 -26
8 -8 8 -13 0 -17 -8 -5 -8 -13 -1 -27 6 -10 8 -19 4 -19 -3 0 0 -8 7 -17 12
-15 12 -16 -6 -10 -16 6 -15 3 5 -13 20 -16 21 -19 5 -13 -18 6 -18 5 -6 -10
7 -9 10 -17 5 -17 -5 0 -2 -5 6 -10 12 -8 12 -10 1 -10 -11 0 -11 -3 -1 -15 7
-8 9 -15 4 -15 -4 0 -3 -5 3 -11 8 -8 8 -20 2 -36 -6 -18 -6 -22 3 -17 8 5 9
0 6 -14 -4 -12 -1 -22 4 -22 6 0 5 -6 -2 -15 -12 -14 -7 -20 14 -16 5 1 5 -4
-1 -11 -6 -7 -8 -22 -6 -33 2 -11 5 -26 5 -32 1 -7 6 -13 12 -13 6 0 5 -4 -3
-9 -9 -6 -10 -11 -2 -15 8 -5 8 -13 -1 -29 -9 -19 -9 -20 3 -10 11 9 14 6 16
-15 1 -23 8 -85 15 -129 1 -7 6 -13 11 -13 5 0 4 -7 -3 -15 -10 -12 -9 -16 2
-20 10 -4 13 -15 10 -31 -3 -15 0 -24 8 -24 10 0 10 -3 0 -15 -9 -11 -9 -15
-1 -15 7 0 9 -4 6 -10 -3 -5 -1 -10 5 -10 6 0 8 -5 5 -10 -4 -6 -2 -16 4 -23
6 -8 6 -18 1 -27 -6 -10 -3 -21 8 -34 13 -15 14 -18 2 -12 -9 5 -9 2 2 -7 13
-10 15 -16 6 -25 -9 -9 -9 -12 1 -12 7 0 9 -5 6 -10 -4 -6 -1 -18 7 -27 11
-14 11 -16 -2 -8 -12 7 -13 6 -3 -7 7 -8 10 -18 6 -21 -3 -4 0 -7 7 -7 7 0 10
-3 7 -7 -4 -3 -1 -13 6 -21 9 -13 9 -14 0 -8 -7 4 -13 2 -13 -3 0 -6 5 -11 11
-11 5 0 7 -5 4 -10 -3 -6 -1 -10 6 -10 8 0 8 -4 -1 -15 -9 -11 -9 -15 -1 -15
7 0 10 -4 7 -9 -3 -4 1 -16 8 -26 7 -10 11 -31 10 -47 -2 -17 0 -27 6 -23 6 4
10 -8 10 -27 0 -19 5 -39 12 -46 9 -9 9 -12 -2 -12 -9 0 -8 -5 6 -16 10 -8 12
-12 4 -8 -13 7 -13 5 -1 -9 7 -9 10 -17 5 -17 -4 0 -3 -5 3 -11 6 -6 9 -18 6
-25 -3 -8 -1 -14 4 -14 5 0 10 -10 11 -22 7 -55 19 -88 36 -100 8 -6 8 -8 0
-8 -6 0 -11 -7 -11 -15 0 -8 4 -12 9 -9 7 5 12 -13 11 -44 -1 -6 4 -12 9 -12
6 0 4 -8 -3 -17 -10 -11 -10 -14 -1 -9 7 4 12 2 12 -4 0 -6 4 -9 8 -6 4 3 7
-9 6 -25 -1 -19 3 -32 12 -36 11 -4 12 -9 3 -19 -8 -10 -8 -14 0 -14 6 0 11
-9 11 -20 0 -11 5 -20 12 -20 6 0 8 -3 5 -6 -3 -4 -1 -16 5 -28 11 -20 10 -20
-8 -6 -17 13 -17 11 2 -10 11 -14 19 -35 18 -48 -1 -17 2 -20 12 -12 14 13 14
-5 0 -29 -6 -10 -5 -12 2 -7 8 5 12 0 12 -13 0 -12 4 -21 9 -21 5 0 8 -12 6
-26 -1 -14 3 -28 11 -31 7 -2 11 -13 9 -24 -3 -13 2 -19 13 -19 15 0 15 -2 2
-10 -9 -6 -11 -10 -3 -10 7 0 10 -6 7 -14 -3 -7 2 -20 10 -29 8 -8 12 -18 8
-21 -3 -4 0 -11 8 -16 13 -9 13 -10 0 -10 -9 -1 -6 -5 7 -10 13 -5 20 -15 18
-23 -3 -7 1 -30 10 -50 8 -20 12 -37 8 -37 -5 0 -3 -4 2 -8 6 -4 17 -16 25
-26 12 -17 13 -18 1 -11 -9 5 -5 -8 9 -30 14 -23 18 -35 9 -30 -9 6 -9 2 3
-11 16 -19 18 -23 18 -45 0 -5 4 -7 10 -4 5 3 7 0 4 -8 -3 -8 2 -19 10 -26 9
-7 13 -24 11 -42 -2 -16 -1 -28 3 -25 4 2 13 -2 20 -10 8 -9 9 -14 2 -14 -7 0
-5 -7 4 -15 8 -9 12 -23 9 -32 -5 -12 -3 -14 7 -8 10 6 12 4 7 -8 -4 -11 -1
-17 7 -17 15 0 16 -16 3 -37 -6 -9 -3 -11 9 -6 12 4 15 3 10 -5 -4 -7 -2 -12
3 -12 6 0 11 -9 11 -19 0 -11 7 -27 16 -36 9 -9 17 -27 17 -40 0 -13 6 -26 14
-29 9 -4 13 -13 9 -22 -3 -8 -2 -12 4 -9 9 6 12 2 14 -27 1 -7 8 -19 16 -26 9
-8 10 -11 2 -7 -11 6 -11 3 0 -16 7 -13 17 -27 22 -30 5 -4 6 -11 3 -16 -3 -5
3 -17 14 -26 11 -10 17 -22 14 -27 -3 -6 -1 -10 5 -10 6 0 8 -5 5 -10 -3 -6 0
-13 9 -16 8 -3 12 -12 9 -20 -3 -7 2 -16 10 -20 9 -3 14 -11 11 -19 -3 -7 2
-19 10 -28 9 -9 16 -22 16 -30 0 -9 5 -17 10 -19 6 -2 12 -14 13 -26 1 -13 9
-28 19 -33 10 -5 18 -18 18 -27 0 -10 9 -28 20 -40 14 -14 16 -22 8 -22 -8 0
-6 -4 4 -11 10 -5 15 -16 11 -25 -3 -8 -2 -14 3 -13 28 5 36 -1 24 -17 -11
-13 -10 -16 9 -21 17 -4 19 -8 9 -14 -8 -5 -9 -9 -2 -9 6 0 17 -13 24 -30 7
-16 17 -30 22 -30 6 0 4 -8 -3 -17 -8 -9 -9 -14 -4 -11 10 6 31 -10 32 -26 1
-17 27 -45 37 -39 6 4 5 -1 -3 -10 -9 -11 -10 -17 -2 -17 6 0 11 -7 11 -15 0
-8 5 -15 10 -15 6 0 10 -7 10 -15 0 -8 4 -15 9 -15 5 0 14 -13 21 -30 7 -17
17 -27 24 -23 8 4 8 2 -1 -7 -8 -9 -7 -16 5 -31 8 -10 19 -16 24 -13 4 3 5 -3
1 -12 -4 -10 -2 -15 4 -11 5 3 10 0 11 -8 1 -8 3 -22 4 -30 1 -8 5 -12 10 -9
4 3 8 -1 8 -8 0 -7 10 -19 21 -27 17 -10 19 -15 9 -21 -9 -6 -7 -10 9 -15 19
-6 20 -9 9 -23 -7 -10 -9 -14 -5 -11 14 12 54 -34 44 -48 -9 -12 3 -18 27 -14
5 1 6 -6 2 -15 -5 -12 -2 -15 9 -10 13 5 14 2 4 -15 -8 -15 -8 -19 0 -15 6 4
11 2 11 -4 0 -6 6 -8 13 -4 6 4 9 4 5 -1 -4 -4 -3 -14 3 -22 6 -7 8 -13 3 -13
-5 -1 2 -7 16 -15 14 -8 19 -14 11 -15 -10 0 -7 -6 7 -19 12 -10 19 -21 15
-25 -3 -3 1 -6 10 -6 10 0 17 -5 17 -12 0 -6 8 -21 17 -32 17 -20 17 -20 -2
-6 -15 11 -14 7 5 -15 14 -17 28 -31 33 -33 4 -2 5 -8 1 -13 -3 -5 2 -9 11 -9
9 0 13 -4 10 -10 -3 -5 -2 -10 3 -10 5 0 15 -13 22 -30 7 -17 19 -30 26 -30 8
0 14 -4 14 -10 0 -24 20 -51 32 -43 4 2 5 -3 2 -11 -3 -9 -1 -16 6 -16 6 0 8
-5 4 -12 -4 -6 -3 -8 3 -5 6 4 17 -1 24 -10 12 -14 12 -16 -1 -9 -8 4 -5 -1 7
-10 13 -9 23 -25 23 -36 0 -10 4 -17 8 -14 4 2 14 1 22 -5 13 -7 13 -9 1 -9
-11 0 -10 -4 4 -13 12 -9 15 -19 10 -28 -7 -11 -5 -11 10 1 11 8 16 10 11 3
-4 -7 2 -22 13 -34 11 -12 18 -27 14 -32 -3 -6 -1 -7 5 -3 8 4 16 -3 22 -18 5
-14 17 -26 27 -27 10 0 13 -3 6 -6 -10 -3 -10 -7 0 -18 7 -7 15 -11 18 -9 4 2
10 -7 13 -21 4 -14 10 -24 15 -22 5 1 9 -2 9 -6 1 -5 11 -17 23 -28 12 -10 18
-19 13 -19 -5 -1 2 -7 16 -15 16 -9 19 -15 10 -15 -9 -1 -6 -5 8 -10 12 -6 22
-18 22 -30 0 -11 6 -20 14 -20 8 0 23 -14 33 -30 9 -17 21 -30 26 -30 4 0 5
-4 2 -10 -3 -5 -1 -10 5 -10 13 0 40 -24 40 -36 0 -12 49 -52 56 -45 4 3 4 1
0 -6 -3 -6 -2 -14 4 -18 6 -4 8 -11 5 -16 -4 -5 4 -9 17 -9 19 0 20 -2 8 -11
-12 -9 -11 -10 6 -6 17 4 20 1 16 -15 -3 -12 0 -18 8 -16 7 2 17 -8 21 -22 4
-14 8 -18 8 -10 1 11 5 10 13 -5 6 -11 20 -28 32 -38 11 -10 15 -15 7 -11 -9
5 -12 3 -7 -4 4 -7 14 -12 22 -12 8 0 12 -4 9 -10 -3 -5 1 -10 10 -10 8 0 18
-7 21 -15 4 -8 10 -13 14 -10 4 3 7 -3 6 -13 0 -9 5 -16 11 -15 7 2 13 -2 13
-8 0 -14 26 -39 40 -39 7 0 10 -6 7 -14 -4 -10 4 -19 22 -27 17 -8 27 -18 24
-26 -3 -8 -2 -13 3 -12 17 4 44 -13 44 -27 0 -8 7 -14 16 -14 8 0 13 -3 11 -7
-3 -5 1 -14 9 -21 8 -7 14 -11 14 -8 0 3 16 -9 35 -27 19 -17 35 -38 35 -44 0
-7 6 -12 12 -10 7 1 12 -4 10 -12 -2 -9 4 -12 18 -8 11 3 18 1 15 -3 -7 -11 5
-41 14 -36 9 6 24 -5 37 -28 6 -11 19 -24 29 -30 28 -16 45 -33 45 -46 0 -6 3
-9 8 -7 10 6 92 -80 84 -88 -4 -3 1 -3 11 1 11 4 17 1 17 -9 0 -16 26 -30 41
-22 5 4 6 -1 3 -9 -6 -15 6 -21 30 -17 5 1 4 -5 -3 -13 -10 -12 -9 -14 8 -9
13 3 21 1 21 -6 0 -7 -6 -9 -13 -6 -6 4 -3 -1 7 -9 11 -9 26 -16 34 -16 7 0
10 -5 7 -10 -3 -6 5 -14 18 -19 13 -5 27 -17 30 -25 4 -9 13 -16 22 -16 8 0
15 -7 15 -15 0 -8 3 -14 8 -14 18 3 32 -2 29 -10 -1 -5 0 -8 3 -8 3 1 20 -12
37 -30 17 -17 34 -29 37 -26 3 4 6 -2 6 -13 0 -16 2 -17 10 -4 9 13 10 13 11
0 1 -8 1 -19 0 -23 -1 -5 3 -6 9 -2 5 3 10 1 10 -4 0 -6 7 -11 15 -11 7 0 18
-8 24 -17 5 -10 13 -17 18 -16 4 0 7 -3 6 -7 -1 -4 9 -11 23 -14 18 -5 24 -12
20 -22 -3 -9 -2 -12 5 -9 12 8 41 -14 34 -26 -3 -4 4 -6 15 -4 11 2 18 1 16
-4 -3 -4 8 -15 25 -25 16 -9 29 -21 29 -27 0 -5 7 -9 15 -9 8 0 15 -4 15 -10
0 -5 7 -10 16 -10 8 0 12 -4 9 -10 -3 -6 1 -10 9 -10 9 0 16 -6 16 -12 0 -9 4
-8 10 2 8 13 10 12 10 -2 0 -10 7 -18 15 -18 9 0 12 -6 8 -16 -5 -14 -3 -15
17 -4 15 8 20 8 16 1 -4 -6 -2 -11 4 -11 6 0 8 -4 5 -10 -3 -5 1 -10 9 -10 9
0 16 -5 16 -11 0 -5 4 -7 10 -4 5 3 10 1 10 -5 0 -7 7 -9 16 -6 8 3 13 2 10
-3 -3 -5 11 -21 31 -37 20 -15 33 -21 29 -13 -4 8 -1 6 7 -4 8 -9 23 -17 33
-17 16 0 17 -2 4 -10 -13 -8 -12 -10 3 -10 9 0 17 -4 17 -10 0 -5 3 -9 8 -9
19 3 33 -2 27 -11 -3 -5 1 -10 11 -10 9 0 25 -9 35 -21 10 -11 23 -18 29 -14
7 4 14 -2 17 -14 4 -16 11 -20 24 -16 11 4 18 2 17 -3 -2 -6 1 -10 5 -10 5 -1
17 -10 26 -21 10 -12 25 -21 32 -21 8 0 21 -9 29 -19 7 -11 17 -18 22 -15 4 3
8 0 8 -5 0 -6 6 -10 13 -8 6 1 11 -4 9 -11 -1 -8 2 -11 7 -8 5 4 15 0 23 -7 7
-7 18 -15 23 -16 6 -2 9 -7 8 -12 -2 -4 4 -6 12 -3 8 4 15 1 15 -5 0 -6 6 -8
14 -5 7 3 16 -2 19 -10 4 -9 13 -16 20 -16 8 0 20 -7 27 -15 7 -9 15 -13 18
-10 3 2 13 -5 23 -17 11 -11 19 -18 19 -13 0 4 6 3 13 -3 6 -6 16 -10 20 -10
5 0 12 -4 15 -8 4 -4 0 -4 -8 1 -11 6 -12 5 -5 -3 6 -6 21 -13 34 -15 13 -2
30 -12 37 -22 8 -10 14 -15 14 -10 0 5 7 0 16 -11 8 -10 12 -12 8 -4 -5 11 -1
10 13 -3 12 -10 30 -20 40 -22 10 -1 17 -7 16 -13 -1 -6 4 -13 13 -16 10 -4
13 -2 8 6 -4 7 6 2 23 -10 17 -12 36 -22 42 -22 6 0 11 -6 11 -12 0 -10 2 -10
9 0 6 10 10 9 14 -7 3 -14 10 -19 21 -15 9 3 16 1 16 -6 0 -6 4 -8 10 -5 5 3
10 -2 10 -12 0 -15 2 -16 10 -3 6 10 10 11 10 3 0 -7 7 -13 16 -13 8 0 13 -4
10 -9 -4 -5 3 -7 14 -4 14 4 20 0 20 -11 0 -10 4 -15 9 -12 5 4 12 0 14 -6 4
-10 6 -10 6 0 1 8 8 6 23 -8 12 -11 30 -20 40 -20 10 0 18 -4 18 -10 0 -5 7
-10 15 -10 8 0 15 -6 15 -12 0 -9 4 -8 10 2 8 13 10 12 10 -4 0 -12 5 -16 15
-12 8 3 15 1 15 -4 0 -6 7 -10 15 -10 8 0 15 -5 15 -11 0 -8 6 -7 17 2 9 8 14
10 11 4 -3 -5 10 -20 28 -32 19 -13 34 -17 34 -11 0 7 6 4 13 -7 8 -10 18 -15
23 -12 6 3 16 1 24 -5 12 -8 12 -9 -3 -4 -10 3 -16 2 -13 -3 3 -5 15 -11 26
-14 12 -3 18 -1 14 5 -3 5 3 4 15 -4 12 -7 21 -17 21 -22 0 -4 8 -2 17 5 11
10 14 10 9 2 -6 -11 5 -18 19 -10 2 1 11 -7 20 -18 9 -11 13 -14 10 -6 -5 9 1
8 19 -4 14 -10 26 -13 26 -9 0 5 5 1 11 -9 8 -14 14 -16 24 -7 12 10 13 8 10
-10 -3 -18 -2 -20 10 -10 11 10 15 10 15 1 0 -7 5 -9 10 -6 6 3 10 1 10 -5 0
-6 4 -8 10 -5 6 3 10 0 10 -7 0 -11 2 -10 9 0 6 11 10 10 15 -3 3 -10 12 -15
20 -12 8 3 26 -3 39 -13 13 -11 27 -16 31 -13 3 3 6 1 6 -6 0 -8 7 -10 21 -6
15 5 19 4 15 -4 -6 -10 13 -16 37 -12 4 0 7 -4 7 -9 0 -6 8 -10 19 -10 10 0
24 -7 31 -15 7 -9 23 -13 36 -11 14 3 22 1 19 -5 -6 -8 8 -13 28 -10 4 0 7 -4
7 -11 0 -6 3 -9 6 -5 4 3 19 0 34 -8 22 -11 30 -12 33 -2 4 9 6 9 6 0 1 -7 10
-13 21 -13 11 0 20 -5 20 -12 0 -6 3 -8 7 -5 3 4 15 -1 26 -10 11 -10 17 -12
13 -6 -4 7 -2 13 3 13 6 0 11 -8 11 -17 0 -14 2 -15 9 -4 6 9 10 10 12 2 3 -7
21 -13 41 -14 20 -1 36 -6 35 -12 -1 -5 4 -9 11 -8 6 2 12 -1 12 -6 0 -5 11
-8 24 -7 14 2 27 -3 30 -10 3 -8 12 -11 21 -8 8 4 15 1 15 -6 0 -9 4 -9 17 1
11 10 14 10 9 2 -4 -8 -2 -13 6 -13 7 0 26 -7 43 -16 16 -8 38 -13 47 -11 10
3 16 1 12 -4 -5 -8 18 -14 40 -10 5 1 12 -3 16 -8 3 -6 18 -12 33 -13 15 -1
27 -7 27 -12 0 -5 3 -6 6 -3 4 3 15 2 26 -4 11 -6 32 -12 46 -15 56 -8 67 -12
64 -23 -2 -9 3 -9 18 -1 14 8 20 8 20 0 0 -6 4 -8 10 -5 6 3 10 2 10 -4 0 -6
6 -8 14 -5 8 3 17 1 20 -4 3 -6 16 -8 28 -4 13 3 19 1 15 -6 -8 -11 11 -11 31
2 8 5 12 3 10 -6 -2 -8 5 -12 20 -11 12 2 22 -2 22 -7 0 -6 3 -9 8 -9 24 4 62
-2 58 -9 -3 -5 1 -9 9 -9 8 0 11 5 8 11 -3 6 0 5 8 -2 7 -6 21 -12 31 -12 10
0 18 -5 18 -12 0 -9 3 -9 11 -1 9 9 17 8 33 -2 12 -8 32 -13 44 -10 13 2 20 0
17 -5 -3 -6 4 -10 17 -9 32 1 112 -22 120 -35 5 -7 8 -6 8 3 0 10 3 11 14 2 7
-6 22 -8 31 -4 11 4 16 2 12 -3 -3 -6 7 -9 24 -8 16 1 29 -2 29 -8 0 -5 5 -6
10 -3 6 3 10 0 10 -7 0 -10 3 -9 9 1 8 12 12 12 25 2 9 -8 16 -10 16 -6 0 4 8
1 17 -6 15 -12 16 -12 8 1 -8 13 -7 13 9 1 15 -13 19 -13 27 0 7 12 9 11 9 -2
0 -13 9 -16 40 -14 24 1 37 -2 34 -7 -4 -6 2 -7 16 -3 15 5 20 3 16 -3 -4 -7
3 -9 20 -6 19 3 24 1 18 -8 -6 -10 -3 -9 9 1 13 10 17 10 17 1 0 -10 3 -10 15
0 8 7 16 10 16 6 1 -3 2 -10 3 -15 0 -5 5 -13 10 -18 5 -5 6 -3 2 5 -5 8 1 12
18 12 14 0 26 -6 26 -12 0 -8 3 -9 8 -3 10 14 32 17 32 4 0 -5 5 -7 10 -4 6 3
10 1 10 -6 0 -7 7 -4 16 7 8 10 13 13 9 6 -3 -6 -1 -12 5 -12 6 0 8 -4 5 -10
-3 -6 1 -7 9 -4 9 3 13 11 9 18 -3 6 3 3 14 -7 16 -14 22 -15 26 -5 4 11 6 11
6 0 1 -8 6 -10 14 -5 19 12 36 12 31 0 -3 -8 10 -12 35 -12 22 -1 37 3 35 7
-3 4 2 5 10 2 9 -3 16 -9 16 -13 0 -4 23 -6 52 -5 47 3 49 2 32 -11 -17 -14
-17 -14 9 -3 21 9 33 9 46 1 11 -7 23 -8 34 -1 11 6 17 5 17 -1 0 -6 7 -8 15
-5 8 4 22 1 29 -5 11 -10 15 -8 19 6 4 17 5 17 6 1 0 -10 6 -18 12 -18 5 0 7
4 4 10 -3 6 1 7 9 4 9 -3 13 -11 9 -17 -4 -6 -1 -7 8 -2 19 12 49 14 55 3 3
-5 12 -3 21 3 11 10 16 10 22 1 4 -7 15 -10 24 -6 10 3 25 0 34 -7 12 -10 15
-10 9 -2 -4 7 -3 13 2 13 6 0 13 -7 16 -16 5 -12 10 -13 19 -6 15 13 57 12 57
-1 0 -4 6 -5 13 0 18 11 36 12 43 2 3 -5 13 -5 25 1 11 7 19 7 19 1 0 -10 19
-9 38 2 7 5 14 2 18 -7 5 -12 11 -13 24 -6 15 8 22 6 30 -7 8 -13 10 -14 7 -2
-4 12 2 14 27 11 17 -3 36 -9 42 -13 7 -6 16 -3 24 6 12 14 15 14 30 0 10 -9
21 -12 24 -7 3 5 18 8 33 5 48 -6 130 -6 141 1 6 3 14 1 18 -5 4 -8 9 -7 15 2
5 8 9 9 9 4 0 -11 95 -13 106 -2 4 4 13 2 21 -4 9 -8 17 -8 26 0 8 6 17 8 21
4 12 -12 36 -12 36 0 0 8 3 8 8 2 9 -13 46 -19 38 -6 -4 6 2 8 16 5 36 -8 134
-8 147 0 6 4 11 2 11 -4 0 -6 5 -8 12 -4 16 10 78 12 84 2 3 -4 11 -5 19 -2 8
4 12 11 8 18 -4 6 1 5 10 -3 9 -7 17 -11 17 -7 0 3 12 1 26 -4 18 -7 23 -7 18
1 -5 8 1 10 20 7 14 -3 29 -1 32 4 4 5 10 5 17 0 17 -13 46 -11 41 3 -3 7 4
11 18 9 13 -1 24 -3 26 -4 8 -7 29 -5 41 4 11 8 13 8 7 -1 -4 -7 -3 -13 3 -13
5 0 12 4 15 9 4 5 14 8 24 6 9 -1 22 2 29 7 7 5 14 5 17 -1 4 -6 14 -7 23 -4
12 5 14 3 8 -8 -6 -10 -3 -9 11 2 12 10 40 17 74 19 108 4 120 5 120 12 0 5 5
8 11 8 5 0 7 -4 4 -10 -9 -15 4 -12 21 5 12 11 20 12 35 5 13 -8 19 -7 19 0 0
8 6 8 17 1 13 -7 23 -5 37 7 11 10 16 11 11 3 -6 -10 -2 -11 16 -6 13 5 40 9
59 11 19 1 35 3 35 4 0 1 10 3 23 4 12 2 22 -2 22 -8 0 -5 7 -1 16 10 8 10 13
14 10 8 -3 -7 1 -14 9 -17 8 -4 12 -1 9 6 -3 8 5 13 18 14 18 2 20 0 8 -7 -9
-6 -10 -10 -3 -10 6 0 15 5 18 11 4 6 13 8 21 5 8 -3 14 -2 14 2 0 4 20 7 44
7 25 -1 43 2 40 7 -3 4 5 8 18 8 13 0 33 1 46 1 12 0 22 6 22 12 0 7 4 6 10
-3 5 -8 10 -10 10 -4 0 6 11 10 25 9 15 -2 29 3 35 13 5 10 10 12 10 6 0 -7 7
-15 16 -18 8 -3 12 -2 9 4 -6 9 4 12 60 15 11 1 26 4 33 9 6 4 17 4 24 0 8 -5
9 -2 4 11 -5 15 -4 16 8 6 9 -7 21 -9 28 -5 19 12 38 14 38 3 0 -6 6 -4 14 3
8 7 11 18 8 23 -3 6 2 4 11 -3 9 -8 22 -10 28 -6 7 4 29 9 48 11 79 9 123 22
116 33 -7 11 29 7 37 -5 5 -6 8 -6 8 2 0 6 13 10 29 9 19 -1 27 2 24 10 -3 8
6 11 26 9 17 -1 31 2 31 7 0 6 8 4 17 -3 9 -8 14 -9 10 -3 -4 7 0 15 9 18 9 4
13 2 8 -5 -4 -8 -1 -8 14 0 11 6 30 11 41 11 12 0 21 6 21 13 0 9 3 8 9 -2 6
-9 11 -10 15 -2 4 6 12 9 17 6 5 -4 9 -1 9 5 0 6 4 9 8 6 8 -5 67 13 90 27 7
5 12 3 12 -5 0 -10 2 -10 9 0 4 8 11 13 15 13 26 -4 36 0 30 12 -5 9 -4 9 6 0
10 -10 20 -8 43 9 17 12 27 17 23 10 -4 -7 -3 -12 3 -12 5 0 13 5 16 10 4 6
11 8 16 5 5 -4 9 -1 9 5 0 6 5 8 10 5 6 -3 16 -3 23 2 6 4 23 9 37 11 13 2 30
7 36 13 6 5 14 6 17 2 4 -3 7 -1 7 6 0 9 10 12 29 9 17 -2 28 -1 25 4 -3 4 2
8 10 8 9 0 16 4 16 10 0 6 9 6 25 0 20 -8 23 -7 18 8 -6 15 -5 16 12 2 10 -8
16 -10 12 -4 -8 13 19 27 34 18 5 -3 9 0 9 6 0 6 5 8 10 5 6 -3 10 -2 10 3 0
5 6 9 13 10 28 2 46 9 63 22 11 9 15 10 10 2 -4 -6 -2 -12 3 -12 6 0 11 5 11
11 0 5 5 7 10 4 6 -3 10 -1 10 6 0 8 4 8 15 -1 12 -10 15 -10 15 4 0 9 5 16
11 16 5 0 7 -6 4 -12 -4 -7 -1 -6 7 3 7 9 19 14 26 11 8 -2 23 6 34 18 20 22
22 22 35 4 10 -14 13 -14 13 -3 0 8 16 22 35 31 20 9 32 11 29 4 -3 -6 1 -3 9
6 16 21 32 24 21 6 -4 -7 1 -6 12 3 10 9 27 15 37 14 9 -2 15 1 11 6 -5 8 12
13 44 12 10 -1 10 2 1 13 -9 12 -9 13 4 9 8 -4 29 1 46 10 18 9 36 13 41 10 5
-3 13 3 19 12 6 10 11 14 11 9 0 -5 7 -3 15 4 13 11 15 10 10 -6 -4 -12 0 -9
9 6 10 16 16 19 16 10 0 -12 4 -11 15 4 8 10 25 19 39 19 14 0 23 3 20 8 -3 5
-1 9 5 9 5 0 17 3 27 7 13 5 15 3 10 -8 -4 -8 2 -3 13 11 14 17 21 20 21 10 0
-13 2 -13 9 0 6 8 7 19 3 25 -3 5 1 4 10 -3 12 -10 18 -9 28 3 7 8 16 13 20
10 5 -3 11 -1 15 5 4 6 11 8 16 5 5 -4 9 -1 9 4 0 6 3 10 8 9 13 -2 42 14 37
22 -2 4 7 6 20 4 14 -1 25 2 25 7 0 6 4 8 9 5 5 -3 11 1 15 9 3 8 11 15 18 15
9 0 8 -3 -2 -10 -9 -6 -10 -10 -3 -10 7 0 16 6 20 13 4 6 19 18 32 25 19 11
22 11 16 0 -3 -7 2 -3 13 10 22 24 38 30 26 10 -4 -7 5 -2 21 12 16 14 25 18
21 10 -6 -12 -5 -12 6 1 7 9 23 15 36 14 13 -1 26 3 29 8 3 6 1 7 -5 3 -7 -4
-12 -4 -12 1 0 4 11 13 25 20 14 6 23 7 19 2 -3 -5 2 -6 10 -3 9 3 14 9 12 13
-2 3 7 11 20 18 18 8 23 8 18 0 -3 -7 1 -4 9 5 8 10 17 15 20 11 4 -3 7 -1 7
6 0 7 4 10 9 6 5 -3 16 1 24 9 8 8 17 12 21 9 3 -4 6 -1 6 5 0 6 7 9 17 5 11
-4 14 -3 9 5 -4 7 -2 12 4 12 6 0 9 4 6 9 -4 5 3 7 14 4 12 -3 20 0 20 6 0 7
5 9 10 6 6 -3 13 1 16 9 3 9 10 14 14 11 4 -3 11 2 14 11 3 8 11 12 17 8 6 -3
15 -1 19 7 8 12 28 19 62 22 12 1 14 5 7 13 -7 9 -4 12 15 10 18 -2 23 1 18
12 -4 10 -1 13 7 8 7 -5 18 0 27 10 9 11 12 13 9 6 -6 -11 -3 -11 14 0 12 7
21 16 21 21 0 4 4 6 10 2 5 -3 18 3 30 15 11 11 22 20 25 20 3 0 10 0 16 0 5
0 7 4 4 10 -3 5 3 10 14 10 12 0 21 5 21 10 0 6 9 10 21 10 11 0 18 3 16 8 -2
4 5 16 16 26 18 17 20 17 14 2 -6 -15 -3 -14 19 3 15 11 30 18 35 15 5 -3 6 3
2 12 -4 12 -3 15 5 10 7 -4 12 -2 12 4 0 6 5 8 10 5 6 -3 10 -2 10 3 0 5 13
15 30 22 16 7 27 16 25 20 -3 5 0 12 6 16 8 4 9 3 5 -4 -4 -7 -3 -12 3 -12 5
0 14 7 19 16 5 9 11 15 13 14 12 -4 38 14 32 23 -3 6 -1 7 5 3 6 -4 20 2 32
14 11 11 26 20 34 20 8 0 16 7 20 15 3 9 12 12 23 8 10 -3 15 -3 11 2 -4 4 -1
14 7 21 17 17 29 18 19 2 -5 -9 -3 -9 9 1 9 7 14 18 10 23 -3 6 0 8 8 6 8 -3
21 3 30 13 8 10 21 19 29 21 7 2 22 11 32 21 10 10 24 14 31 10 7 -4 6 1 -3
13 -8 10 -10 16 -6 12 5 -4 16 -2 24 5 13 10 14 9 7 -3 -8 -13 -7 -13 11 0 10
8 23 21 27 28 5 7 12 10 18 7 5 -4 9 1 9 10 0 9 3 14 8 12 10 -7 32 19 24 29
-4 5 2 2 12 -6 12 -9 17 -10 12 -3 -5 9 3 17 21 25 15 7 38 23 50 35 12 13 26
23 30 23 5 0 15 9 23 19 7 11 17 18 22 15 4 -3 8 0 8 6 0 6 15 17 33 25 17 8
25 15 17 15 -12 0 -11 3 3 11 9 5 22 7 29 3 7 -4 8 -3 4 4 -4 7 -2 12 4 12 6
0 9 4 6 9 -3 5 1 12 10 15 10 4 13 2 9 -7 -4 -6 7 3 24 21 18 20 35 31 42 26
8 -4 9 -3 5 5 -4 6 0 14 8 17 9 3 13 11 9 18 -3 6 -3 8 2 4 11 -10 65 23 65
40 0 7 4 11 8 8 5 -3 14 4 22 14 8 10 17 17 22 14 4 -3 8 2 8 10 0 9 5 16 10
16 6 0 22 12 35 26 14 15 25 23 25 19 0 -4 11 4 25 19 13 14 29 26 35 26 5 0
9 3 9 8 -3 19 2 25 11 12 6 -10 10 -11 10 -3 0 15 36 53 50 53 6 0 10 7 10 16
0 8 4 13 9 9 5 -3 16 4 24 15 7 11 17 17 20 13 4 -3 7 1 7 10 0 10 4 17 10 17
16 0 61 51 54 62 -4 6 -2 8 4 4 6 -3 13 -2 17 4 4 6 12 7 18 4 7 -4 9 -4 5 0
-8 9 33 52 46 48 5 -2 6 4 3 12 -4 11 -1 13 10 9 9 -4 14 -2 11 3 -3 5 0 15 8
22 8 7 14 9 14 5 1 -4 8 4 16 20 13 24 25 32 46 28 5 0 7 2 6 7 -3 14 14 42
23 36 5 -3 9 0 9 6 0 6 5 8 12 4 6 -4 9 -3 5 2 -8 14 20 47 34 38 7 -4 10 -3
5 4 -3 6 3 16 14 22 11 6 19 16 17 23 -1 7 4 11 11 10 6 -2 12 5 12 15 0 14 2
15 10 2 8 -13 10 -13 10 1 0 20 34 52 44 42 4 -5 6 -3 4 3 -2 6 15 27 36 47
21 20 35 37 31 37 -4 0 2 9 15 20 12 11 26 17 31 14 5 -3 6 3 2 12 -5 14 -3
16 11 11 10 -4 15 -3 11 3 -3 5 -1 18 4 27 6 10 11 14 11 10 0 -10 30 18 30
28 0 12 27 34 34 28 3 -4 6 1 6 10 0 9 5 17 10 17 6 0 10 7 10 16 0 14 3 14
15 4 13 -11 14 -10 9 4 -3 9 -1 16 6 16 6 0 9 3 7 8 -7 12 50 62 71 62 4 0 0
5 -8 10 -11 7 -11 10 -2 10 7 0 10 4 7 10 -3 6 1 7 9 4 15 -6 21 6 17 29 -1 5
3 6 8 3 5 -4 16 3 24 14 7 11 17 17 21 12 4 -4 6 -2 5 3 -5 17 42 85 59 85 8
0 13 3 9 6 -3 4 1 13 9 21 8 8 11 20 7 26 -4 7 1 6 11 -2 15 -12 17 -12 14 0
-2 8 2 13 8 12 7 -1 11 5 10 15 0 10 6 17 15 16 11 -1 15 6 13 22 -1 17 2 21
14 17 10 -4 13 -2 8 5 -4 7 -2 12 4 12 6 0 9 4 6 9 -3 5 1 12 10 15 9 3 12 11
8 18 -5 9 -2 8 9 -1 15 -12 17 -12 11 3 -4 10 0 18 10 22 9 3 14 10 11 14 -3
5 3 13 12 19 10 6 14 11 10 11 -4 0 3 11 17 23 14 13 23 27 19 30 -3 4 2 9 11
13 9 3 16 13 16 21 0 8 5 11 12 7 8 -5 9 0 5 15 -5 19 -3 20 9 10 12 -10 15
-10 12 2 -2 8 3 13 11 11 12 -3 12 0 2 12 -14 16 2 32 21 20 6 -4 8 -3 4 4 -3
6 4 21 16 33 13 12 16 19 8 15 -8 -4 -7 -1 4 8 11 9 15 20 10 28 -4 7 -4 10 1
6 11 -10 46 32 38 45 -3 5 -2 8 3 5 9 -6 42 23 35 30 -7 7 22 41 31 36 5 -3 8
-2 7 3 -3 20 2 34 11 28 6 -4 7 1 3 11 -4 11 -2 15 4 11 6 -4 14 0 17 9 4 10
2 13 -7 8 -6 -4 -2 3 11 15 12 12 20 26 17 31 -3 6 1 7 9 4 11 -4 16 0 16 14
0 21 23 46 33 36 3 -3 3 4 0 15 -3 12 -2 21 3 20 21 -4 28 2 14 11 -13 8 -13
10 2 10 9 0 20 5 24 12 5 7 2 9 -7 4 -8 -4 -6 -1 5 8 10 8 16 22 13 30 -7 18
3 28 17 16 8 -6 12 -2 13 12 1 12 7 24 14 28 7 5 8 14 4 21 -5 8 -5 11 0 7 4
-4 16 2 26 14 22 25 24 34 6 22 -7 -5 -4 -1 6 9 11 9 16 17 12 17 -4 0 4 9 19
21 14 11 24 24 21 29 -7 12 5 41 15 35 5 -3 11 8 15 25 4 17 11 28 16 24 5 -3
9 2 9 12 0 9 8 23 18 31 11 9 12 12 2 8 -8 -4 -4 3 10 15 14 12 20 19 14 16
-6 -3 -11 1 -11 9 0 8 4 12 9 9 4 -3 11 2 14 10 3 9 10 13 15 10 5 -3 9 0 9 5
0 6 -5 11 -12 11 -6 0 -4 6 7 13 11 9 15 19 10 27 -5 7 -4 11 1 8 10 -7 27 11
32 32 2 8 8 17 13 18 5 2 7 8 3 13 -3 5 0 9 5 9 6 0 10 6 8 13 -1 6 3 11 9 10
6 -1 10 9 9 22 -3 19 1 23 17 20 16 -4 18 -2 8 10 -10 11 -10 15 -1 15 7 0 9
5 6 10 -3 6 -1 10 6 10 7 0 9 3 5 7 -3 4 4 13 16 21 13 7 15 11 6 8 -15 -5
-16 -3 -5 14 6 11 15 20 20 20 4 0 5 5 2 10 -3 6 -1 10 5 10 6 0 8 5 5 10 -3
6 -1 10 5 10 6 0 9 4 6 9 -3 5 1 12 9 15 8 3 14 9 13 13 0 4 5 22 12 38 7 17
13 33 12 38 -1 4 2 7 7 7 5 0 12 11 15 25 4 15 11 23 17 19 7 -4 6 3 -2 17
-11 22 -11 23 5 10 16 -13 18 -13 16 0 -4 29 0 40 13 33 7 -5 6 0 -3 11 -8 10
-10 16 -4 12 7 -4 18 1 25 10 10 12 10 14 2 9 -7 -4 -13 -3 -13 2 0 6 7 13 16
16 8 3 12 10 9 16 -3 5 -1 10 4 10 6 0 10 3 10 7 -3 21 2 44 9 39 4 -2 12 6
18 19 10 20 9 22 -5 17 -14 -5 -13 -3 2 12 9 9 17 22 17 27 0 6 4 8 9 5 5 -3
12 1 15 10 3 8 2 12 -4 9 -6 -3 -7 1 -4 9 3 9 14 16 23 17 9 0 11 3 5 5 -7 3
-10 14 -7 24 3 11 9 18 13 15 4 -2 12 7 19 21 9 20 9 24 -1 18 -7 -4 -3 4 10
18 12 13 20 27 17 30 -10 10 18 58 29 51 6 -4 4 2 -4 12 -12 15 -12 17 -1 10
11 -6 13 -3 9 13 -4 12 -2 20 2 17 5 -3 11 -1 15 5 3 5 1 10 -5 10 -7 0 -5 7
4 16 9 8 14 20 11 25 -4 5 -1 9 4 9 6 0 11 9 11 20 0 11 4 20 10 20 5 0 6 7 3
17 -4 10 -2 14 4 10 13 -8 25 17 15 29 -4 5 -5 8 -3 6 9 -5 31 60 24 71 -3 6
-1 7 5 3 7 -4 13 -1 13 6 1 7 2 18 4 23 1 6 3 16 3 23 1 7 6 11 11 8 5 -4 7 3
4 14 -3 12 1 22 11 26 9 3 14 10 11 14 -8 13 31 91 41 82 4 -4 2 1 -5 10 -11
15 -11 19 3 24 9 3 16 10 16 16 0 5 -6 6 -12 2 -10 -6 -10 -5 -1 7 6 8 12 19
13 24 1 6 5 9 8 8 4 -1 8 13 9 30 1 17 8 34 15 39 7 4 9 8 4 8 -5 0 -3 7 4 15
7 9 10 18 7 22 -4 3 -2 11 3 18 5 6 11 21 13 32 2 12 9 29 17 39 13 16 13 17
0 9 -12 -7 -13 -6 -4 6 6 8 10 22 9 32 -2 9 0 15 5 12 13 -8 19 22 7 35 -9 10
-9 11 1 6 7 -4 12 -1 12 8 0 9 6 16 13 16 8 0 7 4 -3 10 -10 6 -11 10 -2 10 6
0 12 11 12 25 0 14 5 25 12 25 6 0 8 3 5 7 -4 3 -2 12 5 20 9 11 7 12 -6 7
-12 -5 -10 2 8 21 20 22 23 31 15 41 -9 10 -9 14 0 14 6 0 11 11 11 24 0 13 6
27 13 29 9 4 9 6 -1 6 -10 1 -9 5 3 17 12 12 13 19 5 24 -8 5 -8 9 3 13 8 3
13 17 12 36 -1 16 2 28 7 25 4 -3 9 4 9 15 2 33 4 39 11 46 4 4 4 14 1 23 -5
11 -3 13 8 7 11 -7 11 -5 -1 10 -12 15 -12 17 -1 10 11 -6 13 -4 8 8 -3 9 -2
19 4 22 5 4 7 10 4 15 -3 5 0 12 6 15 5 4 8 13 5 21 -3 7 -1 16 5 20 6 4 6 11
-2 20 -9 11 -6 16 12 23 13 5 19 10 13 10 -13 1 -14 31 -1 31 5 0 7 7 4 15 -4
8 -2 17 2 20 5 2 11 16 13 30 3 14 1 22 -4 18 -6 -3 -5 4 1 14 6 11 7 23 3 27
-3 4 2 4 12 0 15 -6 17 -4 10 7 -13 21 -14 39 -2 39 6 0 8 11 6 25 -3 14 -1
28 5 32 6 4 7 1 2 -7 -5 -9 -4 -11 4 -6 8 6 9 12 2 20 -6 7 -8 16 -4 20 7 7
10 18 17 69 3 16 11 36 18 45 11 13 11 14 -1 7 -11 -6 -13 -4 -7 11 5 10 9 25
9 32 0 6 4 12 9 12 5 0 4 9 -2 19 -7 14 -6 23 3 33 7 7 12 23 11 35 -1 13 2
23 6 23 3 0 4 14 2 31 -3 18 -1 29 5 26 5 -3 10 3 10 14 1 12 -2 17 -10 12 -7
-3 -5 2 4 13 9 10 14 25 12 32 -3 7 1 20 9 29 9 12 9 15 1 9 -7 -4 -13 -2 -13
3 0 6 6 11 13 11 7 0 3 8 -8 17 -15 12 -16 14 -3 10 20 -7 29 11 16 36 -6 11
-5 17 3 17 6 0 9 6 6 14 -3 7 -1 18 5 24 7 7 6 17 -2 32 -7 13 -8 20 -2 16 6
-3 13 -2 17 4 3 5 1 10 -6 10 -10 0 -10 3 -2 11 6 6 9 18 6 27 -5 11 -3 13 6
7 7 -4 5 5 -5 21 -14 22 -15 26 -3 17 14 -11 15 -7 15 36 -1 27 2 47 6 45 4
-3 5 9 1 27 -5 26 -3 31 8 24 8 -5 11 -5 7 0 -4 4 -2 15 5 23 8 11 8 14 0 9
-8 -5 -11 2 -11 22 1 17 4 28 8 26 11 -7 6 39 -5 47 -5 4 -1 8 10 8 12 0 16 3
9 8 -11 7 -11 38 0 49 3 3 1 15 -5 26 -8 14 -8 18 0 13 7 -5 10 3 7 23 -2 17
-1 33 2 36 3 3 7 16 8 30 2 17 -1 23 -9 19 -9 -5 -9 -4 0 6 6 7 9 19 6 28 -4
9 -2 13 4 9 12 -8 12 11 0 31 -6 8 -2 12 10 13 10 0 13 3 6 6 -7 2 -13 14 -13
24 0 13 4 18 13 13 9 -5 9 -4 0 6 -9 9 -9 19 -2 33 8 15 8 18 -1 12 -9 -6 -9
-2 -1 14 7 11 8 21 3 21 -5 0 -9 7 -9 15 0 8 5 15 10 15 5 0 7 7 4 15 -4 8 -1
17 5 21 7 5 5 12 -7 21 -17 12 -17 13 -2 13 14 0 16 4 8 18 -7 13 -7 22 1 30
8 8 6 19 -7 39 -16 24 -16 26 -2 14 15 -12 17 -11 13 10 -2 13 2 30 8 38 8 11
8 13 0 8 -13 -7 -12 73 1 93 3 5 1 10 -5 10 -8 0 -8 6 0 20 8 14 8 20 0 20 -6
0 -8 5 -3 13 12 20 12 37 0 37 -7 0 -5 5 3 10 9 6 11 10 3 10 -7 0 -10 7 -6
16 9 24 10 167 1 186 -4 9 -4 19 1 22 9 6 7 48 -3 65 -3 5 0 11 6 14 9 3 10 8
3 18 -12 16 -13 39 -2 57 5 6 4 12 -2 12 -7 0 -7 8 -1 25 5 14 6 25 1 25 -4 0
-7 12 -6 28 1 15 -2 35 -7 44 -5 10 -4 19 4 24 7 5 8 3 3 -6 -6 -9 -4 -11 4
-6 9 6 8 13 -6 29 -10 11 -12 17 -4 12 9 -5 12 -3 9 6 -3 8 -1 23 5 34 9 17 8
18 -4 8 -12 -10 -15 -8 -17 13 -1 13 3 24 8 24 7 0 7 6 1 18 -6 11 -6 24 2 37
9 18 9 19 -6 6 -15 -12 -17 -12 -11 3 3 9 10 16 16 16 5 0 2 7 -6 16 -12 11
-13 20 -6 34 7 13 7 21 0 25 -8 5 -7 11 1 21 9 11 9 14 -1 14 -8 0 -10 3 -7 6
3 4 2 16 -4 27 -7 13 -7 17 -1 13 6 -3 13 -2 17 4 3 5 1 10 -6 10 -7 0 -9 3
-6 7 4 3 2 12 -4 20 -9 10 -8 13 2 13 10 0 10 3 1 12 -14 14 -16 32 -4 24 5
-3 9 1 9 9 0 8 -5 11 -10 8 -6 -4 -8 0 -4 10 3 9 2 19 -4 22 -5 4 -6 12 -2 18
11 18 12 37 3 37 -9 0 -7 26 2 36 9 8 -3 37 -21 50 -12 10 -12 13 5 22 10 6
13 12 7 12 -7 0 -13 5 -13 11 0 5 4 7 10 4 6 -3 7 1 4 9 -3 9 -11 13 -17 9 -6
-4 -7 -1 -1 8 12 20 14 39 3 39 -6 0 -5 9 2 21 9 17 8 20 -2 14 -8 -6 -11 -4
-7 6 3 8 1 25 -5 39 -14 35 -17 51 -7 45 5 -3 8 4 7 15 -1 11 -4 20 -7 20 -3
0 -6 22 -5 50 0 29 -5 52 -12 54 -8 3 -9 14 -4 33 5 19 3 36 -8 53 -9 13 -11
21 -4 17 6 -4 15 -2 19 4 4 7 3 9 -3 6 -6 -4 -17 1 -24 10 -12 15 -12 16 4 10
14 -5 16 -3 8 12 -6 10 -7 21 -4 25 3 3 2 6 -3 6 -6 0 -11 10 -11 23 -4 76
-12 110 -26 119 -14 7 -15 12 -4 29 10 16 9 21 -3 29 -8 5 -10 10 -4 10 6 0
11 7 11 15 0 8 -4 15 -8 15 -4 0 -6 9 -4 19 2 11 -2 24 -9 30 -7 6 -11 28 -10
51 1 22 -2 40 -6 40 -5 0 -7 12 -4 26 3 14 1 23 -4 20 -5 -3 -9 1 -9 9 0 8 5
15 11 15 7 0 7 3 1 8 -10 7 -12 14 -20 55 -2 9 -6 21 -9 26 -4 5 0 12 6 14 10
4 10 6 1 6 -7 1 -13 12 -13 26 0 14 -4 25 -10 25 -6 0 -6 9 0 25 7 17 6 24 -2
22 -6 -1 -13 4 -16 12 -3 10 0 11 9 5 12 -7 12 -5 0 9 -7 9 -10 17 -5 17 4 0
3 5 -4 12 -7 7 -8 17 -2 28 7 13 4 22 -9 34 -11 10 -17 29 -16 51 0 23 -4 35
-13 35 -7 0 -10 5 -7 10 4 6 0 22 -9 35 -10 15 -12 26 -6 30 7 4 6 13 0 26 -6
11 -8 25 -4 31 5 8 2 9 -10 5 -12 -5 -15 -3 -9 6 13 21 12 35 -4 41 -8 3 -12
10 -8 16 3 5 1 19 -5 30 -8 15 -8 20 2 20 10 0 10 2 0 9 -7 4 -14 14 -15 22
-2 8 -7 20 -11 28 -7 10 -6 12 4 6 10 -6 11 -4 4 6 -21 32 -33 83 -23 95 8 9
4 11 -13 8 -13 -2 -18 -2 -11 2 7 3 9 12 6 20 -3 7 -8 12 -12 9 -4 -2 -8 2 -8
10 0 8 5 11 11 8 6 -4 5 0 -1 9 -7 8 -10 18 -6 21 3 4 -1 9 -10 13 -9 3 -13
12 -11 19 3 7 -2 27 -10 44 -15 28 -15 30 1 24 15 -6 16 -5 3 9 -8 9 -19 13
-24 10 -5 -3 -7 2 -3 11 7 19 -1 49 -12 42 -4 -2 -7 12 -6 31 1 18 -2 34 -6
34 -5 0 -9 6 -9 13 0 6 -7 25 -15 40 -8 15 -10 25 -6 22 5 -3 4 6 -2 20 -7 14
-16 25 -21 25 -5 0 -3 7 4 15 10 12 9 16 -4 21 -9 3 -13 10 -10 15 3 5 1 9 -5
9 -6 0 -8 6 -5 14 3 8 0 17 -5 21 -6 3 -9 11 -6 16 4 5 2 9 -4 9 -6 0 -8 7 -5
15 5 12 2 14 -12 8 -17 -6 -18 -5 -5 11 11 13 12 19 3 25 -7 4 -13 19 -14 34
-1 14 -4 24 -7 21 -3 -2 -10 8 -16 23 -9 20 -9 30 -1 35 7 5 4 8 -7 8 -10 0
-15 5 -12 10 3 6 2 10 -3 10 -6 0 -8 9 -5 20 3 12 -1 22 -10 26 -9 3 -13 12
-10 20 3 7 -2 17 -11 20 -13 5 -14 9 -5 20 9 11 9 14 0 14 -7 0 -9 5 -6 10 3
6 -1 10 -10 10 -11 0 -14 7 -11 25 3 17 1 23 -6 19 -7 -5 -9 -1 -5 9 3 10 2
17 -3 17 -6 0 -10 9 -10 21 0 13 -4 18 -12 13 -8 -5 -7 0 2 11 8 10 10 16 5
13 -6 -4 -17 2 -24 14 -9 14 -9 18 -1 13 9 -6 9 -2 1 14 -7 11 -17 21 -24 21
-7 0 -6 4 3 10 11 7 11 10 2 10 -7 0 -11 4 -7 9 3 5 1 12 -5 16 -6 4 -8 11 -5
16 4 5 1 9 -4 9 -6 0 -11 7 -11 16 0 9 -5 12 -12 8 -7 -5 -9 -2 -5 8 3 9 0 21
-6 27 -6 6 -8 11 -3 11 4 0 0 7 -8 16 -9 8 -14 20 -11 25 4 5 1 9 -5 9 -6 0
-8 5 -5 10 3 6 2 10 -4 10 -5 0 -12 14 -16 30 -4 19 -11 28 -18 23 -7 -3 -9
-3 -5 1 3 4 0 19 -7 33 -8 15 -12 30 -9 35 3 4 0 8 -6 8 -6 0 -8 5 -5 10 3 6
2 10 -3 10 -5 0 -12 14 -16 31 -3 17 -10 28 -15 24 -6 -3 -8 4 -6 15 2 11 0
20 -6 20 -5 0 -9 7 -9 15 0 8 -5 15 -11 15 -5 0 -8 4 -4 10 3 5 -4 19 -15 30
-11 11 -18 25 -15 30 4 6 1 10 -5 10 -7 0 -9 7 -6 16 6 15 4 15 -10 3 -16 -13
-16 -12 -5 9 10 18 9 22 -3 22 -9 0 -13 7 -11 20 2 11 -1 19 -8 17 -7 -1 -11
4 -9 11 1 6 -2 12 -8 12 -6 0 -9 6 -8 13 2 6 -3 11 -11 9 -9 -2 -11 3 -7 14 4
10 -1 22 -11 31 -12 9 -13 12 -3 8 8 -4 4 3 -9 14 -13 12 -18 21 -11 21 7 0 2
9 -11 21 -13 11 -18 18 -11 14 6 -3 12 -2 12 4 0 5 -9 13 -20 16 -11 4 -17 11
-14 17 4 5 -3 23 -15 39 -12 16 -19 35 -15 41 4 7 3 8 -4 4 -7 -4 -12 -1 -12
8 0 8 -5 18 -12 22 -7 5 -8 3 -3 -6 5 -8 4 -11 -3 -6 -6 4 -9 13 -5 21 3 8 0
15 -7 15 -6 0 -8 5 -5 10 3 6 1 10 -4 10 -6 0 -10 6 -9 13 2 6 -3 11 -10 9 -8
-1 -11 2 -7 7 3 6 -3 18 -14 27 -15 13 -17 22 -10 36 8 14 6 16 -7 11 -12 -4
-15 -3 -10 5 4 7 2 12 -3 12 -6 0 -11 7 -11 15 0 8 -8 15 -17 15 -15 0 -16 2
-3 10 13 8 13 10 -2 10 -11 0 -15 5 -12 15 4 8 1 15 -7 15 -7 0 -9 3 -6 6 4 4
-3 15 -15 25 -11 11 -18 19 -13 19 4 0 2 6 -4 13 -6 8 -9 17 -6 20 3 4 2 5 -2
2 -6 -5 -53 53 -53 64 0 3 7 -3 15 -13 8 -11 15 -15 15 -9 0 6 -16 23 -35 37
-20 15 -33 32 -30 37 4 5 -1 12 -9 15 -9 3 -16 10 -16 16 0 5 6 6 13 3 6 -4 3
2 -8 12 -30 28 -62 67 -47 59 6 -4 12 -2 12 3 0 6 -6 11 -13 11 -16 0 -40 38
-32 50 4 6 -1 7 -11 3 -11 -4 -15 -2 -11 4 4 6 0 16 -8 23 -8 7 -15 18 -15 24
0 6 -9 18 -19 26 -11 7 -18 17 -15 22 3 4 1 8 -4 8 -5 0 -15 14 -22 30 -7 17
-17 30 -22 30 -5 0 -6 5 -3 10 3 6 -1 10 -10 10 -9 0 -13 5 -10 10 3 6 1 10
-4 10 -6 0 -11 7 -11 16 0 9 -5 12 -12 8 -8 -5 -9 -2 -5 10 4 9 3 15 -1 12 -5
-3 -19 13 -33 36 -13 22 -36 54 -51 71 -16 16 -28 34 -28 38 0 5 -8 9 -17 10
-11 0 -13 3 -5 6 8 3 0 17 -25 40 -21 20 -31 32 -23 27 8 -4 1 7 -17 24 -20
21 -30 39 -27 50 5 13 4 14 -4 3 -8 -11 -12 -9 -22 10 -7 13 -19 28 -27 32 -7
5 -11 12 -8 18 4 5 -1 9 -10 9 -9 0 -13 5 -10 10 3 6 2 10 -4 10 -5 0 -13 9
-16 20 -4 11 -10 18 -15 15 -5 -3 -11 -1 -15 5 -3 5 0 10 7 11 7 0 3 4 -10 10
-13 5 -20 14 -17 20 4 6 -2 13 -14 16 -11 3 -18 9 -15 14 3 5 0 9 -5 9 -6 0
-11 7 -11 16 0 8 -3 13 -7 11 -8 -5 -26 11 -33 28 -6 16 -27 34 -33 29 -3 -3
-3 5 0 18 4 18 3 20 -6 8 -6 -8 -11 -10 -11 -4 0 6 -18 31 -40 54 -22 23 -37
47 -33 53 3 5 2 7 -4 4 -5 -3 -29 16 -52 43 -25 29 -48 47 -55 43 -6 -4 -5 1
3 10 8 10 9 17 3 17 -6 0 -24 12 -39 27 -15 14 -22 23 -14 18 10 -6 12 -4 7 4
-5 7 -15 10 -23 7 -8 -3 -12 -2 -9 2 3 5 -4 15 -15 22 -10 8 -19 18 -19 23 0
13 -27 37 -34 30 -3 -4 -6 -1 -6 6 0 7 -5 9 -12 5 -9 -5 -9 -2 1 9 11 15 11
17 -2 17 -8 0 -18 7 -21 16 -3 8 -11 12 -17 8 -8 -4 -9 -3 -5 4 4 8 0 12 -11
12 -14 0 -15 2 -4 9 11 7 9 10 -8 16 -11 3 -21 14 -22 23 0 12 -2 13 -6 4 -4
-10 -9 -7 -17 9 -6 13 -21 29 -34 35 -12 6 -19 13 -16 17 3 3 -4 10 -15 17
-12 6 -18 16 -15 22 4 7 3 8 -4 4 -7 -4 -12 -2 -12 5 0 7 -3 10 -6 6 -7 -7
-34 17 -34 31 0 5 -8 16 -17 23 -14 12 -16 12 -8 0 5 -10 4 -12 -3 -7 -7 4
-12 14 -12 22 0 8 -6 13 -12 12 -7 -2 -12 2 -11 9 2 6 -6 15 -17 18 -11 4 -18
10 -15 15 3 5 -6 12 -20 16 -23 6 -30 15 -26 37 1 5 -2 6 -7 3 -5 -3 -15 4
-22 15 -8 10 -19 19 -25 19 -13 1 -85 67 -85 80 0 5 -5 12 -12 16 -7 5 -8 2
-3 -7 4 -8 -10 4 -32 26 -21 22 -37 44 -34 49 2 5 -1 6 -7 2 -6 -3 -17 2 -24
11 -7 10 -25 24 -40 32 -16 8 -28 21 -28 29 0 10 -7 13 -21 9 -17 -5 -18 -3
-7 11 7 9 8 13 2 9 -6 -4 -19 2 -29 13 -10 11 -24 20 -31 20 -7 0 -16 5 -20
12 -5 7 -3 8 7 3 12 -8 12 -6 0 8 -7 9 -17 14 -22 11 -5 -3 -12 2 -15 10 -3 9
-11 16 -16 16 -5 0 -23 14 -40 30 -16 17 -36 30 -44 30 -9 0 -13 3 -11 8 2 4
-6 17 -19 29 -15 15 -24 18 -27 10 -3 -7 -6 -4 -6 6 -1 15 -12 22 -33 18 -8
-1 -12 15 -9 32 1 5 -3 6 -9 2 -5 -3 -10 -1 -10 6 0 7 -3 10 -6 6 -3 -3 -18 5
-32 18 -19 18 -28 21 -34 12 -5 -8 -8 -4 -8 11 0 12 -6 22 -14 22 -8 0 -22 10
-30 22 -9 12 -16 17 -16 10 0 -7 -16 3 -36 23 -19 19 -39 33 -44 30 -5 -3 -15
4 -24 16 -9 13 -19 18 -27 14 -8 -5 -10 -4 -5 3 4 7 2 12 -4 12 -6 0 -8 5 -4
12 4 6 3 8 -3 5 -6 -4 -16 0 -23 8 -7 8 -16 13 -20 10 -4 -3 -11 2 -14 11 -3
9 -11 12 -18 8 -8 -5 -9 -2 -5 9 3 9 3 16 -1 15 -13 -4 -52 13 -52 23 0 5 -7
9 -15 9 -8 0 -15 4 -15 10 0 5 -8 6 -17 3 -16 -6 -17 -5 -3 12 14 17 13 18 -2
12 -10 -3 -18 -2 -18 4 0 6 -4 8 -8 5 -5 -3 -20 5 -33 17 -13 12 -27 21 -31
20 -5 -2 -8 2 -8 7 0 6 -6 10 -14 10 -8 0 -17 7 -20 16 -3 9 -12 14 -19 11 -8
-3 -26 8 -41 24 -15 16 -34 29 -42 29 -8 0 -14 7 -14 15 0 8 -5 15 -11 15 -5
0 -7 -6 -3 -12 6 -10 5 -10 -8 -1 -8 7 -19 9 -23 5 -5 -4 -5 -2 -1 5 7 13 -32
45 -46 37 -4 -3 -8 0 -8 5 0 6 -9 11 -20 11 -11 0 -20 7 -20 16 0 8 -4 13 -10
9 -5 -3 -18 3 -29 14 -11 11 -22 17 -25 13 -3 -3 -6 0 -6 7 0 7 -4 10 -8 7 -5
-3 -21 6 -37 20 -31 27 -42 31 -29 11 5 -7 -2 -1 -15 13 -13 14 -20 18 -16 10
4 -10 1 -9 -8 3 -8 9 -22 17 -31 17 -10 0 -14 5 -11 10 3 6 -1 10 -10 10 -9 0
-23 7 -32 15 -8 8 -19 13 -24 10 -5 -4 -9 -1 -9 4 0 6 -7 11 -16 11 -9 0 -12
5 -8 12 4 6 3 8 -4 4 -6 -3 -16 -1 -24 6 -7 7 -19 14 -27 16 -7 1 -20 9 -28
17 -8 9 -19 13 -24 10 -5 -4 -9 -1 -9 4 0 6 -7 11 -15 11 -8 0 -15 6 -15 13 0
9 -2 9 -9 -1 -7 -11 -9 -11 -14 2 -4 9 -17 16 -29 16 -19 0 -20 2 -8 11 12 9
11 10 -7 6 -13 -3 -24 1 -27 10 -4 8 -12 13 -20 10 -8 -3 -16 2 -19 15 -4 12
-10 17 -17 13 -7 -4 -16 -1 -21 6 -7 12 -9 12 -9 0 0 -9 -10 -3 -25 13 -14 15
-25 21 -25 14 -1 -9 -4 -9 -13 2 -7 9 -20 14 -29 12 -12 -2 -18 3 -19 15 0 10
-3 13 -5 6 -4 -8 -12 -5 -25 8 -11 11 -26 18 -32 16 -7 -2 -18 3 -25 12 -11
13 -12 13 -7 1 4 -8 -2 -5 -13 7 -11 12 -22 19 -26 16 -3 -4 -6 -1 -6 7 0 10
-3 10 -14 1 -12 -10 -16 -8 -21 10 -6 17 -9 19 -16 8 -7 -12 -9 -11 -9 1 0 13
-1 13 -10 0 -8 -13 -10 -12 -10 3 0 10 -4 15 -10 12 -5 -3 -10 -2 -10 3 0 6
-7 13 -16 16 -8 3 -12 2 -9 -3 3 -5 1 -13 -5 -16 -6 -4 -10 -3 -9 2 3 20 -2
34 -11 28 -5 -3 -10 -2 -10 4 0 6 -7 7 -17 4 -12 -5 -14 -3 -8 7 6 10 4 12 -8
7 -9 -3 -19 -2 -22 4 -4 5 -11 7 -16 4 -5 -4 -9 -1 -9 4 0 6 -8 11 -17 11 -9
0 -25 8 -36 18 -11 9 -17 11 -13 5 5 -9 2 -11 -8 -7 -9 3 -16 11 -16 16 0 6
-8 4 -17 -3 -11 -10 -14 -10 -9 -1 5 8 -2 16 -19 22 -17 6 -24 14 -19 22 5 9
2 9 -9 -1 -12 -9 -17 -10 -17 -2 0 7 -4 10 -9 6 -5 -3 -17 2 -25 11 -9 8 -16
12 -16 8 0 -3 -8 0 -17 7 -14 12 -16 12 -9 -1 4 -9 1 -8 -7 3 -16 20 -31 23
-22 5 4 -7 0 -5 -8 4 -8 10 -17 15 -20 11 -4 -3 -7 -2 -7 4 0 6 -7 14 -16 17
-10 4 -13 2 -8 -7 4 -6 -3 -3 -16 8 -13 11 -20 15 -17 8 5 -8 1 -8 -18 0 -14
7 -25 15 -25 19 0 4 -9 5 -20 3 -11 -2 -23 1 -26 7 -5 7 -2 8 6 3 9 -5 11 -4
6 4 -6 9 -11 9 -21 1 -9 -8 -14 -8 -17 0 -2 6 -13 12 -26 13 -12 0 -22 5 -22
9 0 4 -5 8 -11 8 -5 0 -7 -5 -3 -12 4 -7 3 -8 -5 -4 -9 6 -9 11 -1 21 9 11 4
12 -24 5 -21 -4 -34 -4 -30 1 3 5 -2 9 -10 9 -9 0 -16 4 -16 9 0 10 -19 9 -36
-2 -7 -4 -11 0 -10 11 1 12 -5 16 -23 14 -16 -3 -21 0 -15 9 5 9 2 10 -9 6
-10 -3 -17 -2 -17 3 0 5 -6 7 -14 4 -7 -3 -21 2 -30 11 -9 9 -16 13 -16 8 0
-4 -11 -8 -24 -8 -20 0 -22 3 -13 14 10 12 9 14 -5 8 -10 -3 -18 -2 -18 3 0 5
-6 7 -14 4 -8 -3 -17 0 -21 5 -3 6 -11 9 -16 5 -5 -3 -16 0 -24 6 -8 6 -20 8
-26 4 -7 -4 -9 -3 -6 3 4 6 -5 13 -21 16 -15 3 -30 1 -33 -5 -3 -5 -9 0 -12
13 -5 19 -8 20 -21 9 -13 -10 -16 -10 -16 2 0 10 -10 13 -30 12 -16 -1 -30 3
-30 9 0 6 -3 7 -7 4 -3 -4 -13 -1 -21 6 -13 10 -15 9 -8 -3 4 -8 0 -6 -8 4
-12 15 -16 16 -16 5 0 -12 -2 -12 -10 1 -5 8 -10 11 -10 5 0 -5 -5 -2 -11 8
-8 14 -14 15 -24 7 -10 -8 -15 -8 -20 1 -6 8 -10 7 -16 -2 -7 -11 -9 -10 -9 4
0 14 -5 17 -20 12 -12 -4 -20 -2 -20 5 0 6 -4 8 -10 5 -5 -3 -10 -2 -10 4 0 5
-11 8 -25 6 -14 -1 -25 2 -25 7 0 5 -5 6 -10 3 -6 -4 -18 -1 -27 7 -14 11 -16
11 -8 -2 7 -12 3 -11 -18 3 -19 13 -27 14 -28 5 0 -7 -4 -4 -9 7 -5 11 -9 14
-9 6 -1 -9 -5 -10 -13 -4 -7 5 -20 9 -28 8 -8 0 -18 3 -21 8 -3 4 -24 9 -46
11 -21 1 -45 6 -51 10 -7 4 -17 4 -22 1 -6 -3 -13 1 -16 10 -4 11 -10 12 -18
6 -8 -7 -19 -6 -32 3 -10 7 -27 12 -36 10 -10 -1 -18 3 -18 9 0 5 -3 7 -6 4
-4 -3 -16 -1 -28 5 -20 11 -20 10 -6 -8 14 -18 14 -18 -6 -1 -11 9 -24 14 -27
10 -4 -3 -7 0 -7 8 0 11 -2 11 -10 -1 -6 -9 -10 -10 -10 -3 0 7 -10 10 -26 7
-14 -3 -23 -1 -20 4 3 5 -11 8 -32 7 -20 -1 -42 2 -49 7 -7 5 -17 7 -23 3 -5
-3 -10 -2 -10 4 0 5 -9 8 -20 6 -11 -2 -20 -1 -20 3 0 4 -19 7 -41 7 -23 0
-48 6 -55 13 -8 7 -14 9 -14 3 0 -6 -15 -4 -36 5 -27 11 -34 12 -28 2 4 -7 -3
-4 -16 7 -13 11 -20 14 -16 8 9 -16 -35 -13 -46 2 -5 6 -12 4 -18 -5 -7 -12
-10 -12 -10 -1 0 8 -6 11 -16 7 -14 -5 -15 -4 -4 9 16 20 6 19 -14 -1 -13 -12
-16 -13 -16 -1 0 14 -33 17 -46 4 -4 -3 -16 0 -27 8 -16 11 -24 12 -36 2 -12
-9 -13 -9 -8 0 6 9 -2 12 -25 13 -60 0 -83 5 -96 20 -10 13 -11 12 -6 -5 6
-16 4 -18 -6 -8 -11 10 -17 10 -29 0 -11 -9 -13 -9 -8 0 4 6 3 14 -3 18 -5 3
-10 1 -10 -5 0 -8 -6 -8 -20 0 -15 8 -20 8 -20 -1 0 -8 -4 -8 -12 -2 -7 6 -20
11 -28 11 -8 0 -25 3 -37 6 -14 3 -23 0 -23 -7 0 -7 -4 -6 -10 3 -5 8 -10 11
-10 5 0 -5 -5 -3 -10 5 -6 9 -10 10 -10 3 0 -8 -9 -9 -29 -3 -21 6 -31 5 -35
-3 -3 -8 -5 -8 -5 1 -1 7 -5 10 -11 7 -5 -3 -10 -1 -10 5 0 6 -5 8 -10 5 -6
-4 -8 -11 -5 -16 3 -5 -1 -6 -9 -3 -9 3 -12 13 -9 22 4 13 2 12 -10 -3 -13
-15 -16 -16 -17 -5 0 13 -1 13 -10 0 -9 -13 -10 -13 -10 0 0 13 -1 13 -10 0
-8 -13 -10 -12 -10 3 0 10 -5 15 -10 12 -6 -4 -7 -12 -4 -18 4 -7 -1 -4 -11 5
-13 12 -24 14 -41 8 -15 -6 -26 -5 -30 1 -4 8 -9 7 -15 -2 -5 -8 -9 -9 -9 -4
0 6 -9 11 -20 12 -13 1 -18 -2 -13 -10 5 -9 3 -9 -8 -1 -8 6 -32 11 -54 13
-22 1 -48 4 -59 7 -12 4 -16 2 -12 -5 4 -5 -6 -4 -20 4 -15 8 -31 12 -36 9
-17 -11 -48 -12 -48 -3 0 6 -4 7 -10 4 -18 -11 -80 -11 -84 -1 -3 7 -5 7 -5
-1 -1 -8 -10 -9 -31 -3 -21 6 -30 5 -30 -3 0 -8 -3 -8 -11 0 -8 8 -20 8 -35 3
-13 -5 -24 -6 -24 -1 0 4 -7 8 -15 8 -8 0 -15 -5 -15 -11 0 -7 -3 -7 -8 -1 -4
6 -20 10 -37 10 -16 0 -33 -4 -37 -10 -5 -6 -8 -5 -8 4 0 7 -6 11 -14 8 -7 -3
-19 0 -26 6 -10 9 -11 9 -6 -1 6 -9 -1 -12 -28 -9 -22 3 -36 0 -36 -7 0 -6 -5
-4 -10 4 -5 8 -10 11 -10 5 0 -5 -5 -3 -10 5 -8 12 -10 12 -10 -5z m-1935
-215 c3 -5 -1 -10 -10 -10 -9 0 -13 5 -10 10 3 6 8 10 10 10 2 0 7 -4 10 -10z
m-4775 -2584 c0 -2 -8 -10 -17 -17 -16 -13 -17 -12 -4 4 13 16 21 21 21 13z
m-1760 -2386 c0 -5 -5 -10 -11 -10 -5 0 -7 5 -4 10 3 6 8 10 11 10 2 0 4 -4 4
-10z m18004 -2241 c-3 -5 -10 -7 -15 -3 -5 3 -7 10 -3 15 3 5 10 7 15 3 5 -3
7 -10 3 -15z m-1184 -7393 c0 -3 -4 -8 -10 -11 -5 -3 -10 -1 -10 4 0 6 5 11
10 11 6 0 10 -2 10 -4z m-8682 -4581 c-3 -3 -9 2 -12 12 -6 14 -5 15 5 6 7 -7
10 -15 7 -18z"/>
<path d="M16220 16925 c13 -14 26 -25 28 -25 3 0 -5 11 -18 25 -13 14 -26 25
-28 25 -3 0 5 -11 18 -25z"/>
<path d="M17845 15020 c3 -5 8 -10 11 -10 2 0 4 5 4 10 0 6 -5 10 -11 10 -5 0
-7 -4 -4 -10z"/>
<path d="M19100 12176 c0 -2 8 -10 18 -17 15 -13 16 -12 3 4 -13 16 -21 21
-21 13z"/>
<path d="M19265 11410 c-3 -5 -2 -10 4 -10 5 0 13 5 16 10 3 6 2 10 -4 10 -5
0 -13 -4 -16 -10z"/>
<path d="M5947 769 c7 -7 15 -10 18 -7 3 3 -2 9 -12 12 -14 6 -15 5 -6 -5z"/>
</g>
</svg>
