<svg width="512" height="512" viewBox="0 0 512 512" fill="none" xmlns="http://www.w3.org/2000/svg">
<circle cx="256" cy="256" r="253.5" fill="#F2F2F2" stroke="#CFCFCF" stroke-width="5"/>
<path d="M324.923 161.529V223.17C324.923 244.487 318.306 257.237 305.231 261.209V321.641C305.231 327.083 300.826 331.487 295.385 331.487C289.943 331.487 285.538 327.083 285.538 321.641V252.708C285.538 247.266 289.943 242.862 295.385 242.862C299.999 242.862 305.231 242.862 305.231 223.17V161.529C305.231 151.28 297.528 142.848 287.317 141.919L226.462 135.631V154.25H256C261.442 154.25 265.846 158.658 265.846 164.096C265.846 175.222 258.232 188.265 247.27 196.198C259.358 206.795 265.597 219.064 265.846 232.842C265.941 238.283 261.616 242.773 256.184 242.872C256.115 242.872 256.059 242.872 256 242.872C250.644 242.872 246.249 238.582 246.154 233.209C245.941 221.584 237.913 211.44 221.604 202.201C217.718 199.995 215.798 195.446 216.94 191.124C218.076 186.801 221.988 183.788 226.458 183.788C232.218 183.788 238.188 179.144 242.015 173.945H206.769V223.173C206.769 234.03 215.605 242.865 226.462 242.865C231.903 242.865 236.308 247.27 236.308 252.711V321.641C236.308 327.083 231.903 331.487 226.462 331.487C221.02 331.487 216.615 327.083 216.615 321.641V261.304C199.644 256.929 187.077 241.487 187.077 223.17V173.939C187.077 163.082 195.912 154.25 206.769 154.25V135.631C206.769 130.064 209.145 124.731 213.268 121.006C217.403 117.284 222.884 115.443 228.48 116.043L289.221 122.319C309.53 124.163 324.923 141.026 324.923 161.529Z" fill="#29C87B"/>
<path d="M157.538 193.641C157.538 199.079 153.134 203.487 147.692 203.487H128C122.558 203.487 118.154 199.079 118.154 193.641C118.154 188.203 122.558 183.795 128 183.795H147.692C153.134 183.795 157.538 188.203 157.538 193.641Z" fill="#29C87B"/>
<path d="M393.846 193.641C393.846 199.079 389.442 203.487 384 203.487H364.308C358.866 203.487 354.462 199.079 354.462 193.641C354.462 188.203 358.866 183.795 364.308 183.795H384C389.442 183.795 393.846 188.203 393.846 193.641Z" fill="#29C87B"/>
<path d="M178.422 102.141C182.269 105.987 182.269 112.217 178.422 116.063C174.576 119.91 168.346 119.91 164.5 116.063L150.577 102.141C146.731 98.2942 146.731 92.0648 150.577 88.2183C154.424 84.3717 160.653 84.3717 164.5 88.2183L178.422 102.141Z" fill="#29C87B"/>
<path d="M361.423 102.141L347.5 116.063C343.654 119.91 337.424 119.91 333.578 116.063C329.731 112.217 329.731 105.987 333.578 102.141L347.5 88.2183C351.347 84.3717 357.576 84.3717 361.423 88.2183C365.269 92.0648 365.269 98.2942 361.423 102.141Z" fill="#29C87B"/>
<path d="M256 55.7949C261.442 55.7949 265.846 60.2027 265.846 65.641V85.3333C265.846 90.7717 261.442 95.1795 256 95.1795C250.558 95.1795 246.154 90.7717 246.154 85.3333V65.641C246.154 60.2027 250.558 55.7949 256 55.7949Z" fill="#29C87B"/>
<path d="M262.892 317.703C281.925 317.703 297.354 302.274 297.354 283.241C297.354 264.208 281.925 248.779 262.892 248.779C243.86 248.779 228.431 264.208 228.431 283.241C228.431 302.274 243.86 317.703 262.892 317.703Z" fill="#069C54"/>
<path d="M282.698 317.559C299.643 317.559 308.376 326.944 313.46 332.027L362.471 381.169C363.677 382.375 364.635 383.808 365.288 385.385C365.941 386.961 366.277 388.651 366.277 390.358C366.277 392.065 365.941 393.755 365.288 395.331C364.635 396.908 363.677 398.341 362.471 399.548C361.264 400.754 359.831 401.712 358.254 402.365C356.678 403.018 354.988 403.354 353.281 403.354C351.574 403.354 349.884 403.018 348.308 402.365C346.731 401.712 345.298 400.754 344.092 399.548L301.859 357.315V432.872C301.859 433.976 300.963 434.872 299.859 434.872H225.65C224.546 434.872 223.65 433.976 223.65 432.872V339.848C207.275 334.916 192.604 325.504 181.295 312.675C169.986 299.845 162.488 284.11 159.65 267.245C158.476 259.424 164.733 252.385 172.684 252.385C175.785 252.407 178.775 253.535 181.117 255.566C183.459 257.598 184.999 260.399 185.458 263.465C188.123 278.563 196.002 292.248 207.721 302.133C219.441 312.019 234.258 317.478 249.589 317.559H282.698Z" fill="#069C54"/>
<path d="M154.913 432.574C154.913 411.162 191.698 400.41 210.051 400.41C228.405 400.41 265.19 411.162 265.19 432.574V453.549C265.19 454.653 264.294 455.549 263.19 455.549H156.913C155.808 455.549 154.913 454.653 154.913 453.549V432.574Z" fill="#137445"/>
<path d="M251.405 359.056C251.405 381.939 233.041 400.41 210.12 400.41C187.2 400.41 168.697 381.939 168.697 359.056C168.697 336.174 187.2 317.703 210.12 317.703C233.041 317.703 251.405 336.174 251.405 359.056Z" fill="#137445"/>
<path d="M265.19 432.574C265.19 411.162 301.975 400.41 320.328 400.41C338.681 400.41 375.467 411.162 375.467 432.574V453.549C375.467 454.653 374.571 455.549 373.467 455.549H267.19C266.085 455.549 265.19 454.653 265.19 453.549V432.574Z" fill="#137445"/>
<path d="M361.682 359.056C361.682 381.939 343.318 400.41 320.397 400.41C297.477 400.41 278.974 381.939 278.974 359.056C278.974 336.174 297.477 317.703 320.397 317.703C343.318 317.703 361.682 336.174 361.682 359.056Z" fill="#137445"/>
</svg>
